<?xml version="1.0" encoding="UTF-8"?>
<svg id="Capa_1" xmlns="http://www.w3.org/2000/svg" viewBox="0 0 250 250">
  <defs>
    <style>
      .cls-1 {
        fill: #595959;
      }
    </style>
  </defs>
  <path class="cls-1" d="M125,0C56.07,0,0,56.07,0,125s56.07,125,125,125,125-56.07,125-125S193.93,0,125,0ZM125,234.38c-60.31,0-109.38-49.07-109.38-109.38S64.69,15.62,125,15.62s109.38,49.07,109.38,109.38-49.07,109.38-109.38,109.38ZM176.31,163.2c-1.53,2.06-3.89,3.15-6.27,3.15-1.62,0-3.26-.5-4.66-1.55l-45.04-33.53c-1.98-1.47-3.15-3.8-3.15-6.27V53.52c0-4.31,3.5-7.81,7.81-7.81s7.81,3.5,7.81,7.81v67.56l41.9,31.19c3.46,2.58,4.18,7.47,1.6,10.93Z"/>
</svg>