<?xml version="1.0" encoding="UTF-8"?>
<svg id="Capa_1" xmlns="http://www.w3.org/2000/svg" viewBox="0 0 249.97 250">
  <defs>
    <style>
      .cls-1 {
        fill: #fff;
      }
    </style>
  </defs>
  <path class="cls-1" d="M243.26,108.74l-.02-.02L141.26,6.74c-4.35-4.35-10.13-6.74-16.27-6.74s-11.93,2.39-16.28,6.74L6.79,108.67s-.07.07-.1.1c-8.93,8.98-8.91,23.54.04,32.5,4.09,4.09,9.49,6.46,15.27,6.71.23.02.47.03.71.03h4.06v75.05c0,14.85,12.08,26.93,26.94,26.93h39.9c4.04,0,7.32-3.28,7.32-7.32v-58.84c0-6.78,5.51-12.29,12.29-12.29h23.53c6.78,0,12.29,5.51,12.29,12.29v58.84c0,4.05,3.28,7.32,7.32,7.32h39.9c14.85,0,26.94-12.08,26.94-26.93v-75.05h3.77c6.15,0,11.92-2.39,16.28-6.74,8.96-8.97,8.97-23.56.01-32.54Z"/>
</svg>