<?xml version="1.0" encoding="UTF-8"?>
<svg id="Capa_1" xmlns="http://www.w3.org/2000/svg" viewBox="0 0 250 250">
  <defs>
    <style>
      .cls-1 {
        fill: #00008f;
      }

      .cls-2 {
        fill: #fff;
      }

      .cls-3 {
        fill: #ff1721;
      }
    </style>
  </defs>
  <rect class="cls-1" x="2.05" y="2.05" width="245.9" height="245.91"/>
  <g>
    <polygon class="cls-3" points="154.43 123.49 247.95 2.05 234.13 2.05 140.3 123.49 154.43 123.49"/>
    <path class="cls-2" d="M189.95,177.69c4.28,11.99,13.11,43.19,16.63,45.68h-23.19s-.09-4.61-1.08-8.18c-1-3.57-9.39-30.55-9.39-30.55h-36.83l-5.79,8.18s6.95,21.79,7.38,22.85c.75,1.92,4.07,7.69,4.07,7.69h-22.22s-.56-3.32-.78-4.7c-.18-1.13-2.1-7.25-2.1-7.25,0,0-5.04,5.53-6.41,8.08-1.38,2.55-2,3.87-2,3.87h-17.39s-.58-3.32-.79-4.7c-.17-1.13-2.3-7.74-2.3-7.74,0,0-4.86,5.91-6.24,8.46-1.38,2.55-1.97,3.98-1.97,3.98h-17.2s4.85-4.62,6.56-6.61c2.86-3.37,13.53-17.31,13.53-17.31l-4.27-14.81h-36.55s-20.83,27.38-21.66,28.22c-.83.84-6.91,9.55-7.04,10.51H2.05v-6.88c.2-.22.35-.38.43-.43.33-.24,15.79-19.44,30-38.36,12.76-16.52,24.74-32.57,25.8-34.09,2.54-3.7,6.21-11.68,6.21-11.68h18.88s.6,7.34,1.15,9.12c.49,1.58,12.01,39.36,12.27,39.76l6.37-8.15-10.88-33.5s-2.55-6.3-3.39-7.23h22.07s-.17,3.23.72,6c.91,2.76,5.64,19.83,5.64,19.83,0,0,15.05-18.87,15.94-20.23,1.65-2.27,1.85-5.6,1.85-5.6h18.39s-3.37,2.46-9.27,9.91c-1.98,2.51-21.39,27.19-21.39,27.19,0,0,1.69,5.78,2.52,8.66.23.83.38,1.38.38,1.45,0,.01.42-.52,1.17-1.45,5.02-6.36,27.81-36.23,29.19-38.8,1.12-2.07,2.75-4.42,3.71-6.97h17.94s.41,5.35.97,6.83l11.23,38.94ZM162.64,149.4c-2.64,5.68-18.15,24.55-18.15,24.55h24.57s-4.76-14.67-5.6-17.96c-.66-2.62-.48-6.02-.48-6.42,0-.31-.05-.8-.34-.17ZM68.29,149.4c-2.64,5.68-18.15,24.55-18.15,24.55h24.56s-4.77-14.67-5.58-17.96c-.66-2.62-.48-6.02-.48-6.42,0-.31-.05-.8-.34-.17ZM105.25,206.63l6.77-9.26c-.63-.68-4.44-12.23-4.44-12.23l-6.53,8.48,4.2,13.02Z"/>
  </g>
  <path class="cls-2" d="M250,250H0V0h250v250ZM4.1,245.9h241.8V4.1H4.1v241.81Z"/>
</svg>