<?xml version="1.0" encoding="UTF-8"?>
<svg id="Capa_1" xmlns="http://www.w3.org/2000/svg" viewBox="0 0 188.52 250">
  <defs>
    <style>
      .cls-1 {
        fill: #fff;
      }
    </style>
  </defs>
  <path class="cls-1" d="M153.82,66.64c0-23.5-15.92-51.93-62.36-52.48-41.06,1.1-62.36,23.5-62.36,52.59,1.1,41.39,38.32,52.48,62.36,52.48,39.53-.11,63.46-23.06,62.36-52.59ZM123.41,82.45c-.22,1.43-.55,2.74-.99,4.06,0,.11-.11.22-.11.44h0c-4.28,12.84-16.47,22.07-30.74,22.07h0c-14.27,0-26.46-9.22-30.74-22.07h0c0-.11-.11-.22-.11-.44-.44-1.32-.77-2.64-.99-4.06-1.1-4.94-1.65-10.32-1.65-15.81s.55-10.87,1.65-15.81c.22-1.43.55-2.74.99-4.06,0-.11.11-.22.11-.44h0c4.28-12.85,16.47-22.07,30.74-22.07h0c14.27,0,26.46,9.22,30.74,22.07h0c0,.11.11.22.11.44.44,1.32.77,2.64.99,4.06,1.1,4.94,1.65,10.32,1.65,15.81s-.55,10.87-1.65,15.81Z"/>
  <g>
    <rect class="cls-1" x=".66" y="187.75" width="6.04" height="6.04"/>
    <rect class="cls-1" x="15.26" y="187.75" width="6.04" height="6.04"/>
    <rect class="cls-1" x="29.86" y="187.75" width="6.04" height="6.04"/>
    <rect class="cls-1" x="44.58" y="187.75" width="6.04" height="6.04"/>
    <rect class="cls-1" x="59.18" y="187.75" width="6.04" height="6.04"/>
    <rect class="cls-1" x="73.89" y="187.75" width="6.04" height="6.04"/>
    <rect class="cls-1" x="88.49" y="187.75" width="6.04" height="6.04"/>
    <rect class="cls-1" x="103.21" y="187.75" width="6.04" height="6.04"/>
    <rect class="cls-1" x="117.81" y="187.75" width="6.04" height="6.04"/>
    <rect class="cls-1" x="132.52" y="187.75" width="6.04" height="6.04"/>
    <rect class="cls-1" x="147.12" y="187.75" width="6.04" height="6.04"/>
    <rect class="cls-1" x="161.73" y="187.75" width="6.04" height="6.04"/>
    <rect class="cls-1" x="176.44" y="187.75" width="6.04" height="6.04"/>
    <path class="cls-1" d="M.66,181.71h181.82V0H.66v181.71ZM176.44,175.78H6.59V5.93h169.85v169.85Z"/>
  </g>
  <g>
    <path class="cls-1" d="M41.06,244.51l-5.6,5.49c-1.76-.11-3.63-.44-5.49-.99-1.87-.55-3.84-1.21-5.82-2.2-1.97-.88-4.61-2.52-7.79-4.72-4.72-.88-8.67-3.07-11.75-6.7-3.08-3.62-4.61-7.8-4.61-12.63,0-5.82,1.97-10.65,5.93-14.49,3.95-3.84,9-5.71,15.04-5.71s10.98,1.87,15.04,5.71c3.95,3.73,5.93,8.56,5.93,14.27,0,4.83-1.54,9-4.5,12.73-2.96,3.73-6.92,5.93-11.64,6.92l1.43.55c4.61,1.76,7.91,2.64,9.88,2.64,1.1-.11,2.41-.33,3.95-.88ZM20.97,207.84c-4.39,0-8.01,1.43-10.87,4.28-2.85,2.85-4.28,6.37-4.28,10.65s1.43,7.69,4.28,10.43c2.86,2.74,6.48,4.17,10.87,4.17s7.91-1.43,10.87-4.28c2.97-2.85,4.39-6.37,4.39-10.54s-1.43-7.8-4.28-10.54c-2.97-2.74-6.59-4.17-10.98-4.17Z"/>
    <path class="cls-1" d="M61.59,242.09v-3.29c-1.1,1.21-2.31,2.08-3.73,2.75-1.43.66-2.75.99-4.17.99-1.65,0-3.07-.44-4.5-1.21-1.32-.77-2.41-1.87-3.07-3.3-.66-1.43-1.1-3.73-1.1-6.92v-14.71h5.05v14.6c0,2.74.44,4.61,1.21,5.6.77,1.1,2.09,1.65,4.06,1.65,2.42,0,4.5-1.21,6.15-3.51v-18.33h5.05v25.69h-4.94Z"/>
    <path class="cls-1" d="M89.15,226.61v10.87c0,.88.33,1.32.88,1.32.66,0,1.54-.44,2.86-1.32v3.07c-1.1.77-2.09,1.21-2.75,1.54-.66.22-1.43.44-2.19.44-2.19,0-3.4-.88-3.84-2.52-2.19,1.65-4.5,2.52-6.92,2.52-1.76,0-3.29-.55-4.5-1.76-1.21-1.21-1.76-2.64-1.76-4.5,0-1.65.55-3.07,1.76-4.28,1.21-1.32,2.85-2.3,4.94-3.07l6.48-2.2v-1.32c0-3.07-1.54-4.61-4.61-4.61-2.74,0-5.49,1.43-8.12,4.28v-5.71c1.98-2.3,4.83-3.51,8.45-3.51,2.74,0,4.94.77,6.7,2.2.55.44,1.1,1.1,1.54,1.87.44.77.77,1.54.88,2.3.11.77.22,2.31.22,4.39ZM84.1,236.93v-7.58l-3.4,1.32c-1.76.66-2.96,1.43-3.62,2.09-.77.66-1.1,1.54-1.1,2.63s.33,1.98.99,2.63c.66.66,1.54.99,2.63.99,1.65-.11,3.18-.77,4.5-2.08ZM87.83,202.46l-6.26,8.34h-3.08l3.73-8.34h5.6Z"/>
    <path class="cls-1" d="M96.51,203.12h5.05v38.97h-5.05v-38.97Z"/>
    <path class="cls-1" d="M111.66,205.64c.88,0,1.54.33,2.19.88.55.55.88,1.32.88,2.08s-.33,1.54-.88,2.09c-.55.55-1.32.88-2.19.88-.77,0-1.43-.33-2.09-.88-.55-.55-.88-1.32-.88-2.09s.33-1.43.88-2.08c.66-.55,1.32-.88,2.09-.88ZM109.13,216.4h5.05v25.69h-5.05v-25.69Z"/>
    <path class="cls-1" d="M117.37,220.46l9.55-9.33v5.27h8.12v4.61h-8.12v12.52c0,2.96,1.21,4.39,3.62,4.39,1.87,0,3.73-.55,5.82-1.87v4.72c-1.97,1.1-4.06,1.65-6.37,1.65s-4.28-.66-5.82-2.09c-.44-.44-.88-.88-1.21-1.43-.33-.55-.55-1.21-.77-1.98-.22-.88-.33-2.42-.33-4.72v-11.42h-4.5v-.33Z"/>
    <path class="cls-1" d="M158.43,226.61v10.87c0,.88.33,1.32.88,1.32.66,0,1.54-.44,2.86-1.32v3.07c-1.1.77-2.09,1.21-2.75,1.54-.66.22-1.43.44-2.19.44-2.2,0-3.4-.88-3.84-2.52-2.2,1.65-4.5,2.52-6.92,2.52-1.76,0-3.29-.55-4.5-1.76-1.21-1.21-1.76-2.64-1.76-4.5,0-1.65.55-3.07,1.76-4.28,1.21-1.32,2.85-2.3,4.94-3.07l6.48-2.2v-1.32c0-3.07-1.54-4.61-4.61-4.61-2.74,0-5.49,1.43-8.12,4.28v-5.71c1.98-2.3,4.83-3.51,8.45-3.51,2.74,0,4.94.77,6.7,2.2.55.44,1.1,1.1,1.54,1.87.44.77.77,1.54.88,2.3.22.77.22,2.31.22,4.39ZM153.49,236.93v-7.58l-3.4,1.32c-1.76.66-2.97,1.43-3.62,2.09-.77.66-1.1,1.54-1.1,2.63s.33,1.98.99,2.63c.66.66,1.54.99,2.63.99,1.65-.11,3.07-.77,4.5-2.08Z"/>
    <path class="cls-1" d="M165.02,240.23v-5.49c1.43.99,2.85,1.87,4.39,2.42,1.54.66,2.74.99,3.73.99,1.1,0,1.97-.22,2.74-.77.77-.55,1.1-1.1,1.1-1.87s-.22-1.32-.77-1.86c-.44-.44-1.54-1.21-3.18-2.09-3.29-1.86-5.38-3.4-6.48-4.72-.99-1.32-1.54-2.74-1.54-4.17,0-1.98.77-3.62,2.3-4.83,1.54-1.21,3.51-1.87,5.93-1.87s5.05.66,7.69,2.09v5.05c-2.96-1.87-5.49-2.75-7.36-2.75-.99,0-1.76.22-2.42.66-.66.44-.88.99-.88,1.65,0,.55.22,1.21.77,1.76.55.55,1.54,1.21,2.86,1.98l1.87.99c4.28,2.42,6.37,5.05,6.37,8.02,0,2.09-.77,3.84-2.41,5.16-1.65,1.32-3.73,1.98-6.37,1.98-1.54,0-2.85-.11-4.06-.44-.99-.44-2.53-.99-4.28-1.87Z"/>
    <path class="cls-1" d="M179.84,244.95c0-.77.22-1.54.55-2.2.33-.66.88-1.21,1.65-1.65.77-.44,1.43-.55,2.19-.55s1.54.22,2.19.55c.66.44,1.21.88,1.54,1.65.33.66.55,1.43.55,2.2s-.22,1.54-.55,2.19c-.44.66-.88,1.21-1.65,1.54-.66.33-1.43.55-2.19.55s-1.54-.22-2.2-.55c-.66-.44-1.21-.88-1.65-1.54-.22-.66-.44-1.43-.44-2.19ZM180.72,244.95c0,.66.11,1.21.44,1.76.33.55.77.99,1.32,1.32.55.33,1.1.44,1.76.44s1.21-.11,1.76-.44c.55-.33.99-.77,1.32-1.32.33-.55.44-1.1.44-1.76s-.11-1.21-.44-1.76c-.33-.55-.77-.99-1.32-1.32-.55-.33-1.1-.44-1.76-.44s-1.21.11-1.76.44c-.55.33-.99.77-1.32,1.32-.33.55-.44,1.1-.44,1.76ZM184.67,242.64c.44,0,.77.11,1.1.33.22.22.44.55.44.88s-.11.66-.33.88c-.22.22-.55.33-.99.44h0c.22.11.33.11.44.33.11.11.33.44.55.88l.55.88h-1.1l-.22-.44c-.22-.33-.33-.66-.55-.88-.22-.22-.33-.44-.44-.44-.11-.11-.33-.11-.55-.11h-.33v1.98h-.88v-4.72h2.31ZM184.34,244.73c.33,0,.55-.11.66-.22s.22-.33.22-.55-.11-.33-.22-.44c-.11-.11-.33-.22-.66-.22h-1.1v1.32h1.1v.11Z"/>
  </g>
  <path class="cls-1" d="M26.79,116.71l1.65-5.38c.44-1.32,1.87-1.98,3.19-1.43l45.45,20.31c22.4,9.77,47.76,9.77,70.27.11l4.06-2.09c1.32-.55,2.97-.11,3.84,1.1h0c.88,1.32.77,3.07-.44,4.17l-33.82,30.96c-3.07,2.74-7.58,3.29-11.2,1.32L27.78,119.45c-.88-.55-1.32-1.76-.99-2.74Z"/>
</svg>