<?xml version="1.0" encoding="UTF-8"?>
<svg id="Capa_1" xmlns="http://www.w3.org/2000/svg" viewBox="0 0 250 249.96">
  <defs>
    <style>
      .cls-1 {
        fill: #fff;
      }
    </style>
  </defs>
  <path class="cls-1" d="M100.62,201.13c22.35,0,44.05-7.45,61.68-21.19l66.51,66.51c4.97,4.8,12.89,4.66,17.68-.31,4.68-4.85,4.68-12.53,0-17.38l-66.51-66.51c34.07-43.86,26.14-107.04-17.72-141.11C118.4-12.92,55.22-4.99,21.15,38.87-12.92,82.73-4.99,145.91,38.87,179.98c17.66,13.72,39.38,21.16,61.74,21.15h0ZM47.18,47.14c29.51-29.51,77.36-29.51,106.88,0,29.51,29.51,29.51,77.36,0,106.88-29.51,29.51-77.36,29.51-106.88,0h0c-29.51-29.3-29.69-76.98-.39-106.49.13-.13.26-.26.39-.39h0Z"/>
</svg>