<?xml version="1.0" encoding="UTF-8"?>
<svg xmlns="http://www.w3.org/2000/svg" version="1.1" viewBox="0 0 250 250">
  <defs>
    <style>
      .cls-1 {
        fill: #ff1721;
      }
    </style>
  </defs>
  <!-- Generator: Adobe Illustrator 28.7.10, SVG Export Plug-In . SVG Version: 1.2.0 Build 236)  -->
  <g>
    <g id="Capa_1">
      <g id="Layer_2">
        <path class="cls-1" d="M125,0C56,0,0,56,0,125s56,125,125,125,125-56,125-125C249.9,56,194,0,125,0ZM173.2,157.1c4.5,4.4,4.6,11.6.3,16.1-4.4,4.5-11.6,4.6-16.1.3,0,0-.2-.2-.3-.3l-32.1-32.1-32.1,32.1c-4.5,4.4-11.7,4.2-16.1-.3-4.3-4.4-4.3-11.4,0-15.8l32.1-32.1-32.1-32.1c-4.5-4.4-4.6-11.6-.3-16.1,4.4-4.5,11.6-4.6,16.1-.3,0,0,.2.2.3.3l32.1,32.1,32.1-32.1c4.4-4.5,11.6-4.6,16.1-.3,4.5,4.4,4.6,11.6.3,16.1,0,0-.2.2-.3.3l-32.1,32.1,32.1,32.1Z"/>
      </g>
    </g>
  </g>
</svg>