<?xml version="1.0" encoding="UTF-8"?>
<svg xmlns="http://www.w3.org/2000/svg" version="1.1" viewBox="0 0 250 250">
  <defs>
    <style>
      .cls-1 {
        fill: #fff;
      }

      .cls-2 {
        fill: #ff1721;
      }
    </style>
  </defs>
  <!-- Generator: Adobe Illustrator 28.7.10, SVG Export Plug-In . SVG Version: 1.2.0 Build 236)  -->
  <g>
    <g id="Capa_1">
      <g>
        <circle class="cls-2" cx="125" cy="125" r="125"/>
        <path class="cls-1" d="M192.2,90.5H57.8v-7.8c0-9.5,7.7-17.2,17.2-17.2h100c9.5,0,17.2,7.7,17.2,17.2v7.8ZM192.2,99.9v82.8c0,9.5-7.7,17.2-17.2,17.2h-100c-9.5,0-17.2-7.7-17.2-17.2v-82.8h134.4ZM82.8,120.2c0,2.6,2.1,4.7,4.7,4.7h25c2.6,0,4.7-2.1,4.7-4.7s-2.1-4.7-4.7-4.7h-25c-2.6,0-4.7,2.1-4.7,4.7ZM167.2,170.2c0-2.6-2.1-4.7-4.7-4.7h-75c-2.6,0-4.7,2.1-4.7,4.7s2.1,4.7,4.7,4.7h75c2.6,0,4.7-2.1,4.7-4.7ZM167.2,145.2c0-2.6-2.1-4.7-4.7-4.7h-75c-2.6,0-4.7,2.1-4.7,4.7s2.1,4.7,4.7,4.7h75c2.6,0,4.7-2.1,4.7-4.7Z"/>
      </g>
    </g>
  </g>
</svg>