<?xml version="1.0" encoding="UTF-8"?>
<svg xmlns="http://www.w3.org/2000/svg" version="1.1" viewBox="0 0 250 250">
  <defs>
    <style>
      .cls-1 {
        fill: #00008f;
      }

      .cls-2 {
        fill: #fff;
      }
    </style>
  </defs>
  <!-- Generator: Adobe Illustrator 28.7.10, SVG Export Plug-In . SVG Version: 1.2.0 Build 236)  -->
  <g>
    <g id="Capa_1">
      <g>
        <circle class="cls-1" cx="125" cy="125" r="125"/>
        <path class="cls-2" d="M183.5,152.5c-.3-.3-25.1-18.2-32-16.9-3.3.6-5.1,2.8-8.8,7.2-.6.7-2,2.4-3.2,3.7-2.4-.8-4.7-1.7-6.9-2.8-11.5-5.6-20.8-14.9-26.3-26.3-1.1-2.2-2-4.5-2.8-6.9,1.2-1.1,2.9-2.6,3.7-3.2,4.4-3.7,6.6-5.6,7.2-8.8,1.2-6.7-16.7-31.7-16.9-32-1.6-2.3-4.2-3.8-7.1-4-7.2,0-27.9,26.8-27.9,31.3s.4,26.9,33.3,60.4c33.4,32.9,60.1,33.2,60.4,33.2,4.5,0,31.3-20.7,31.3-27.9-.2-2.8-1.7-5.4-4-7.1h0Z"/>
      </g>
    </g>
  </g>
</svg>