<?xml version="1.0" encoding="UTF-8"?>
<svg xmlns="http://www.w3.org/2000/svg" version="1.1" viewBox="0 0 250 250" width="14">
  <defs>
    <style>
      .cls-1 {
        fill: #fff;
      }

      .cls-2 {
        fill: #ff1721;
      }
    </style>
  </defs>
  <!-- Generator: Adobe Illustrator 28.7.10, SVG Export Plug-In . SVG Version: 1.2.0 Build 236)  -->
  <g>
    <g id="Capa_1">
      <g>
        <circle class="cls-2" cx="125" cy="125" r="125"/>
        <path class="cls-1" d="M199.7,68.9c-8.6-8.6-22.5-8.6-31.1,0,0,0,0,0,0,0l-65.5,65.5-21.8-21.8c-8.6-8.6-22.5-8.6-31.1,0h0c-8.6,8.6-8.6,22.5,0,31.1,0,0,0,0,0,0l37.4,37.4c8.6,8.6,22.5,8.6,31.1,0,0,0,0,0,0,0l81-81c8.6-8.6,8.6-22.5,0-31.1,0,0,0,0,0,0h0Z"/>
      </g>
    </g>
  </g>
</svg>