<?xml version="1.0" encoding="UTF-8"?>
<svg xmlns="http://www.w3.org/2000/svg" version="1.1" viewBox="0 0 250 101.1">
  <defs>
    <style>
      .cls-1 {
        fill: none;
      }

      .cls-2 {
        fill: #fff;
      }
    </style>
  </defs>
  <!-- Generator: Adobe Illustrator 28.7.10, SVG Export Plug-In . SVG Version: 1.2.0 Build 236)  -->
  <g>
    <g id="Capa_1">
      <g>
        <g>
          <path class="cls-2" d="M124.6,31.1c-.1,3.3-1.1,5.8-2.8,7.4-1.7,1.7-4.1,2.5-7.2,2.5s-5.8-1.1-7.5-3.2c-1.7-2.1-2.6-5.2-2.6-9.1v-4.8c0-4,.9-7,2.7-9.1,1.8-2.1,4.3-3.2,7.5-3.2s5.5.9,7.1,2.6c1.6,1.8,2.5,4.2,2.8,7.5h-5.8c0-2.1-.3-3.4-.9-4.2-.6-.8-1.6-1.2-3.1-1.2s-2.6.5-3.3,1.6c-.6,1.1-1,2.9-1,5.4v5.4c0,2.8.3,4.8,1,5.9.6,1.1,1.8,1.6,3.3,1.6s2.6-.4,3.2-1.1c.6-.7.9-2.1,1-4.1h5.8Z"/>
          <path class="cls-2" d="M148.3,28.9c0,3.9-.9,6.8-2.7,9-1.8,2.1-4.3,3.2-7.6,3.2s-5.8-1.1-7.6-3.2c-1.9-2.1-2.8-5.1-2.8-8.9v-4.9c0-4,.9-7,2.7-9.2,1.8-2.2,4.3-3.3,7.6-3.3s5.7,1.1,7.6,3.3c1.9,2.2,2.8,5.2,2.8,9.2v4.9ZM142.5,24c0-2.6-.4-4.5-1.1-5.8-.7-1.3-1.9-1.9-3.4-1.9s-2.7.6-3.4,1.8c-.7,1.2-1.1,3.1-1.1,5.6v5.1c0,2.5.4,4.3,1.1,5.6.7,1.2,1.9,1.8,3.5,1.8s2.6-.6,3.4-1.8c.7-1.2,1.1-3,1.1-5.4v-5Z"/>
          <path class="cls-2" d="M160.1,11.9l5.4,20.8,5.4-20.8h7.6v28.8h-5.8v-7.8l.5-12-5.8,19.7h-4l-5.8-19.8.5,12v7.8h-5.8V11.9h7.6Z"/>
          <path class="cls-2" d="M189,30.5v10.1h-5.8V11.9h9.8c2.8,0,5.1.9,6.8,2.6,1.7,1.8,2.5,4.1,2.5,6.9s-.8,5-2.5,6.7c-1.7,1.6-4,2.4-6.9,2.4h-3.9ZM189,25.7h4c1.1,0,2-.3,2.6-1.1.6-.7.9-1.8.9-3.2s-.3-2.6-.9-3.4c-.6-.8-1.5-1.3-2.5-1.3h-4.1v8.9Z"/>
          <path class="cls-2" d="M214.8,30.1h-2.9v10.5h-5.8V11.9h9.3c2.9,0,5.2.7,6.7,2.2,1.6,1.5,2.4,3.7,2.4,6.4s-1.4,6.5-4.2,8l5,11.8v.3h-6.2l-4.3-10.5ZM212,25.3h3.3c1.2,0,2.1-.4,2.6-1.2.6-.8.9-1.8.9-3.1,0-2.9-1.1-4.3-3.4-4.3h-3.4v8.6h0Z"/>
          <path class="cls-2" d="M242.3,34.8h-7.9l-1.6,5.9h-6.2l9-28.8h5.3l9,28.8h-6.2l-1.5-5.9ZM235.6,29.9h5.4l-2.7-10.3-2.7,10.3Z"/>
          <path class="cls-2" d="M117.2,81.6c0-1.2-.3-2.1-.9-2.6s-1.7-1.2-3.3-1.9c-2.9-1.1-4.9-2.4-6.2-3.9-1.3-1.5-1.9-3.2-1.9-5.2s.9-4.3,2.6-5.8c1.7-1.5,3.9-2.2,6.5-2.2s3.3.4,4.7,1.1c1.4.7,2.4,1.8,3.2,3.1.7,1.3,1.1,2.9,1.1,4.6h-5.8c0-1.3-.3-2.3-.9-3.1-.6-.7-1.4-1.1-2.5-1.1s-1.8.3-2.4.9-.8,1.4-.8,2.4.3,1.5.9,2.1c.6.6,1.8,1.3,3.4,2,2.8,1,4.8,2.2,6.1,3.7,1.3,1.5,1.9,3.4,1.9,5.6s-.8,4.4-2.4,5.9c-1.6,1.4-3.8,2.1-6.5,2.1s-3.6-.4-5.1-1.1c-1.5-.8-2.7-1.9-3.6-3.3s-1.3-3.1-1.3-5h5.8c0,1.7.3,2.9,1,3.6.6.7,1.7,1.1,3.2,1.1,2,0,3-1.1,3-3.2Z"/>
          <path class="cls-2" d="M141.7,76.7h-9v7.6h10.7v4.8h-16.5v-28.8h16.5v4.8h-10.6v6.8h9v4.7h0Z"/>
          <path class="cls-2" d="M166.3,85.9c-1.1,1.2-2.5,2.1-4.1,2.7-1.6.6-3.4.9-5.3.9-3.3,0-5.9-1-7.7-3.1-1.8-2.1-2.8-5-2.8-8.9v-5.2c0-4,.9-7,2.6-9.1,1.7-2.1,4.2-3.2,7.6-3.2s5.5.8,7.1,2.3c1.6,1.6,2.5,4,2.7,7.2h-5.6c-.1-1.8-.5-3.1-1.1-3.8-.6-.7-1.6-1-2.8-1s-2.7.6-3.4,1.7-1.1,3-1.1,5.5v5.2c0,2.6.4,4.5,1.2,5.7s2.1,1.8,3.9,1.8,2.1-.2,2.8-.7l.5-.3v-5.3h-4.1v-4.4h9.9v11.9h0Z"/>
          <path class="cls-2" d="M189.1,60.4v19.9c0,3-.8,5.3-2.5,6.8-1.6,1.6-4,2.4-7,2.4s-5.4-.8-7.1-2.4c-1.6-1.6-2.4-3.9-2.4-7v-19.8h5.9v19.8c0,1.6.2,2.8.8,3.5.5.7,1.5,1,2.9,1s2.3-.3,2.8-1,.8-1.8.8-3.4v-19.9h5.9Z"/>
          <path class="cls-2" d="M202.1,78.7h-2.9v10.5h-5.8v-28.8h9.3c2.9,0,5.2.7,6.7,2.2,1.6,1.5,2.4,3.7,2.4,6.4s-1.4,6.5-4.2,8l5,11.8v.3h-6.2l-4.3-10.5ZM199.3,73.8h3.3c1.2,0,2.1-.4,2.6-1.2.6-.8.9-1.8.9-3.1,0-2.9-1.1-4.3-3.4-4.3h-3.4v8.6h0Z"/>
          <path class="cls-2" d="M229.6,83.3h-7.9l-1.6,5.9h-6.2l9-28.8h5.3l9,28.8h-6.2l-1.5-5.9ZM222.9,78.4h5.4l-2.7-10.3-2.7,10.3Z"/>
        </g>
        <g>
          <path class="cls-1" d="M49.9,42.3c.3-.3.6-.6,1-.9,1.4-1,3.2-.9,4.4.2,1.2,1.2,1.3,3.1.3,4.4-.2.3-.5.5-.7.8-4.2,4.2-8.5,8.5-12.7,12.7v14.6h0c13.1,0,23.6-10.7,23.6-23.6s-10.6-23.6-23.6-23.6h0v23.2c2.5-2.6,5.2-5.2,7.8-7.8Z"/>
          <path class="cls-1" d="M18.5,50.5c0,12.9,10.7,23.7,23.6,23.7v-14.6c-.6.6-1.3,1.3-2,2-2,2-3.8,2-5.7,0-1.9-1.9-3.7-3.7-5.5-5.6-.9-1-1.2-2.1-.8-3.4.4-1.3,1.4-2.1,2.7-2.2,1.2-.2,2.2.2,3,1.1,1.1,1.1,2.2,2.3,3.6,3.7.3-.4.5-.9.8-1.1l3.9-3.9v-23.2c-13,0-23.5,10.5-23.6,23.6Z"/>
          <path class="cls-2" d="M18.5,50.5c0-13,10.6-23.6,23.6-23.6V0c-.3,0-.7.4-1.5,1-7.1,6.7-15.5,11.1-25.1,13-3.4.7-6.9.9-10.4,1.4-3.1.4-4.8,2.5-4.9,5.6,0,4.5-.2,8.9-.2,13.4,0,8.8.6,17.6,2.7,26.2,2.7,11.2,8.2,20.8,17,28.4,6.4,5.5,13.8,9.2,21.7,12,.2,0,.4,0,.6,0v-26.9c-12.9,0-23.7-10.8-23.6-23.7Z"/>
          <path class="cls-2" d="M84,33.6c0-4.2,0-8.3,0-12.5,0-3.1-1.8-5.1-4.9-5.6-3.5-.5-7-.7-10.4-1.4-9.6-2-18-6.3-25.1-13-.8-.7-1.2-1.1-1.6-1v26.9h0c13,0,23.6,10.6,23.6,23.6s-10.5,23.6-23.6,23.6h0v27c.4,0,.8,0,1.1-.2,3-1.2,6-2.3,8.8-3.8,17.1-8.3,27.1-22.1,30.5-40.7,1.4-7.6,1.8-15.2,1.6-22.9Z"/>
          <path class="cls-2" d="M38.1,54c-.3.3-.4.7-.8,1.1-1.4-1.4-2.5-2.5-3.6-3.7-.8-.8-1.9-1.3-3-1.1-1.3.2-2.2,1-2.7,2.2-.4,1.3-.1,2.4.8,3.4,1.8,1.9,3.7,3.7,5.5,5.6,2,2,3.7,2,5.7,0,.6-.6,1.3-1.3,2-2v-9.5c-1.3,1.3-2.5,2.6-3.9,3.9Z"/>
          <path class="cls-2" d="M55.6,46c1-1.3.8-3.2-.3-4.4-1.2-1.2-3-1.3-4.4-.2-.3.3-.7.6-1,.9-2.6,2.6-5.2,5.2-7.8,7.8v9.5c4.2-4.2,8.5-8.5,12.7-12.7.3-.3.5-.6.8-.9Z"/>
        </g>
      </g>
    </g>
  </g>
</svg>