<?xml version="1.0" encoding="UTF-8"?>
<svg xmlns="http://www.w3.org/2000/svg" version="1.1" viewBox="0 0 250 250">
  <defs>
    <style>
      .cls-1 {
        fill: #323232;
      }
    </style>
  </defs>
  <!-- Generator: Adobe Illustrator 28.7.10, SVG Export Plug-In . SVG Version: 1.2.0 Build 236)  -->
  <g>
    <g id="Capa_1">
      <g id="Right">
        <path class="cls-1" d="M125,250c68.9,0,125-56.1,125-125S193.9,0,125,0,0,56.1,0,125s56.1,125,125,125ZM125,15.6c60.3,0,109.4,49.1,109.4,109.4s-49.1,109.4-109.4,109.4S15.6,185.3,15.6,125,64.7,15.6,125,15.6ZM72.6,130.5c-3.1-3.1-3.1-8,0-11l39.1-39.1c1.5-1.5,3.5-2.3,5.5-2.3s4,.8,5.5,2.3c3.1,3.1,3.1,8,0,11l-25.7,25.7h74.9c4.3,0,7.8,3.5,7.8,7.8s-3.5,7.8-7.8,7.8h-74.9l25.7,25.7c3.1,3.1,3.1,8,0,11-3.1,3.1-8,3.1-11,0l-39.1-39.1Z"/>
      </g>
    </g>
  </g>
</svg>