<?xml version="1.0" encoding="UTF-8"?>
<svg xmlns="http://www.w3.org/2000/svg" version="1.1" viewBox="0 0 250 250">
  <defs>
    <style>
      .cls-1 {
        fill: #323232;
      }
    </style>
  </defs>
  <!-- Generator: Adobe Illustrator 28.7.10, SVG Export Plug-In . SVG Version: 1.2.0 Build 236)  -->
  <g>
    <g id="Capa_1">
      <g id="Right">
        <path class="cls-1" d="M125,0C56.1,0,0,56.1,0,125s56.1,125,125,125,125-56.1,125-125S193.9,0,125,0ZM125,234.4c-60.3,0-109.4-49.1-109.4-109.4S64.7,15.6,125,15.6s109.4,49.1,109.4,109.4-49.1,109.4-109.4,109.4ZM177.4,119.5c3.1,3.1,3.1,8,0,11l-39.1,39.1c-1.5,1.5-3.5,2.3-5.5,2.3s-4-.8-5.5-2.3c-3.1-3.1-3.1-8,0-11l25.7-25.7h-74.9c-4.3,0-7.8-3.5-7.8-7.8s3.5-7.8,7.8-7.8h74.9l-25.7-25.7c-3.1-3.1-3.1-8,0-11,3.1-3.1,8-3.1,11,0l39.1,39.1Z"/>
      </g>
    </g>
  </g>
</svg>