<?xml version="1.0" encoding="UTF-8"?>
<svg xmlns="http://www.w3.org/2000/svg" version="1.1" viewBox="0 0 250 218.2">
  <defs>
    <style>
      .cls-1 {
        fill: #00008f;
      }
    </style>
  </defs>
  <!-- Generator: Adobe Illustrator 28.7.10, SVG Export Plug-In . SVG Version: 1.2.0 Build 236)  -->
  <g>
    <g id="Capa_1">
      <g>
        <path class="cls-1" d="M159.9,18.2c.8.8,1.8,1.2,2.8,1.2s2.1-.4,2.8-1.2l2.8-2.8,2.8,2.8c.8.8,1.8,1.2,2.8,1.2s2.1-.4,2.8-1.2c1.6-1.6,1.6-4.1,0-5.7l-2.8-2.8,2.8-2.8c1.6-1.6,1.6-4.1,0-5.7-1.6-1.6-4.1-1.6-5.7,0l-2.8,2.8-2.8-2.8c-1.6-1.6-4.1-1.6-5.7,0-1.6,1.6-1.6,4.1,0,5.7l2.8,2.8-2.8,2.8c-1.6,1.6-1.6,4.1,0,5.7h0Z"/>
        <path class="cls-1" d="M110.3,20.2c2.5,0,4.5-2,4.5-4.5s-2-4.5-4.5-4.5-4.5,2-4.5,4.5c0,2.5,2,4.5,4.5,4.5Z"/>
        <path class="cls-1" d="M94.3,52.3c2.5,0,4.5-2,4.5-4.5s-2-4.5-4.5-4.5-4.5,2-4.5,4.5c0,2.5,2,4.5,4.5,4.5Z"/>
        <path class="cls-1" d="M142.4,100.7l37.5,25.2c.7.5,1.5.7,2.2.7s1.4-.2,2.1-.6c1.3-.8,2.1-2.3,1.9-3.9l-5.7-54.7c-.2-1.8-1.5-3.2-3.3-3.5-1.8-.3-3.5.5-4.3,2.1l-5.7,11.3-11.7-4.7c-1.5-.6-3.2-.3-4.3.9-1.1,1.1-1.5,2.8-.9,4.3l4.4,11.7-11.3,4.2c-1.4.5-2.4,1.8-2.6,3.3-.2,1.5.5,3,1.7,3.8ZM161.1,95.5c1-.4,1.8-1.1,2.2-2.1.4-1,.5-2.1,0-3.1l-2.6-6.9,6.7,2.7c1.9.8,4.1,0,5.1-1.9l1.2-2.4,3.4,32.7-23.9-16.1,7.7-2.9Z"/>
        <path class="cls-1" d="M236.6,210.2h-36.1V41.8h20.1c2.2,0,4-1.8,4-4s-1.8-4-4-4h-24.1c-2.2,0-4,1.8-4,4v172.5h-43c2.6-2.3,4.8-5,6.6-8h20.4c1.7,0,3.3-1.1,3.8-2.7l4-12c2.6-2.1,4.2-5.3,4.2-8.9v-28.1s0-.7,0-.8c-.4-13.1-11.2-23.7-24.4-23.7h-45.8l-15.8-18.9c-15.2-18.3-39.9-29.2-66-29.2H12c-2.2,0-4,1.8-4,4s1.8,4,4,4h12v40.1h-12c-2.2,0-4,1.8-4,4s1.8,4,4,4h12v48.1h-12c-2.2,0-4,1.8-4,4v12c0,2.2,1.8,4,4,4h88.6c1.8,3,4,5.7,6.6,8H4c-2.2,0-4,1.8-4,4s1.8,4,4,4h232.6c2.2,0,4-1.8,4-4s-1.8-4-4-4h0ZM159.4,194.2c.3-1.3.6-2.6.8-4h14.8l-1.3,4h-14.2ZM176.5,146c2.1,0,3.7,1.6,3.9,3.6,0,.1,0,.3,0,.4h-11.7c-2.3,0-4.1-1.8-4.3-4h12ZM174.7,138h-14.2c-2.2,0-4,1.8-4,4v3.7c0,6.8,5.5,12.3,12.3,12.3h11.7v20.5c0,2-1.6,3.6-3.5,3.6h-16.8c-2-15.8-15.5-28.1-31.8-28.1s-29.8,12.3-31.8,28.1h-4c1.4-13.2,8.9-23.5,21.2-28.4,1.5-.6,2.5-2.1,2.5-3.7v-16h47.7c4.1,0,7.8,1.5,10.6,4h0ZM85.2,122.5l10.4,3.5h-11.3l.9-3.5ZM32.1,85.9h4.3c23.7,0,46.1,9.8,59.8,26.3l6.4,7.7-15.5-5.2,1-3.8c.5-2.2-.8-4.3-2.9-4.9-2.1-.6-4.3.8-4.9,2.9l-4,16c0,.3,0,.6,0,1h-44.2v-40.1ZM32.1,134h76.2v13.4c-14,6.5-22.5,18.9-23.8,34.7h-52.4v-48.1ZM16,194.2v-4h80.5c.2,1.4.4,2.7.8,4H16ZM104.3,186.2c0-13.3,10.8-24.1,24.1-24.1s24.1,10.8,24.1,24.1-10.8,24.1-24.1,24.1-24.1-10.8-24.1-24.1Z"/>
        <path class="cls-1" d="M249.5,138.6c-.7-1.4-2.3-2.3-3.9-2.1l-37.4,3c-1.4.1-2.6.9-3.2,2.2-.6,1.2-.6,2.7.1,3.9l21,35.5c.7,1.2,2.1,2,3.5,2s.6,0,.9,0c1.7-.4,3-1.8,3.1-3.5l1.2-11.7,11.3-3.4c1.4-.4,2.5-1.6,2.8-3,.3-1.4-.2-2.9-1.4-3.9l-6.2-5.1,7.7-9.3c1-1.2,1.2-3,.5-4.4ZM233.2,155.8l3.5,2.9-6.7,2c-1.6.5-2.7,1.8-2.8,3.4l-.2,2.3-11.6-19.6,21.5-1.7-4.2,5c-1.4,1.7-1.2,4.2.5,5.6Z"/>
        <path class="cls-1" d="M128.3,166.1c-11.1,0-20.1,9-20.1,20.1s9,20.1,20.1,20.1,20.1-9,20.1-20.1-9-20.1-20.1-20.1ZM128.3,198.2c-6.6,0-12-5.4-12-12s5.4-12,12-12,12,5.4,12,12-5.4,12-12,12Z"/>
        <path class="cls-1" d="M48.1,138h-8c-2.2,0-4,1.8-4,4s1.8,4,4,4h8c2.2,0,4-1.8,4-4s-1.8-4-4-4Z"/>
      </g>
    </g>
  </g>
</svg>