<?xml version="1.0" encoding="UTF-8"?>
<svg xmlns="http://www.w3.org/2000/svg" version="1.1" viewBox="0 0 190.5 250">
  <defs>
    <style>
      .cls-1 {
        fill: #00008f;
      }
    </style>
  </defs>
  <!-- Generator: Adobe Illustrator 28.7.10, SVG Export Plug-In . SVG Version: 1.2.0 Build 236)  -->
  <g>
    <g id="Capa_1">
      <path class="cls-1" d="M164.9,133.5l-17-6.1.4-1.1c.7-2-.3-4.2-2.3-5l-15.8-6c-1.8-.7-3.9,0-4.9,1.8l-1,1.8-5.6-2v-6.1c7.3-5.6,12.4-13.9,13.7-23.4,8.9,0,16.1-7.3,16.1-16.2s-1.9-8.6-4.9-11.5v-12.8c0-25.8-21-46.9-46.9-46.9s-46.9,21-46.9,46.9v12.9c-3,2.9-4.9,7-4.9,11.5,0,8.9,7.2,16.1,16.1,16.2,1.3,9.5,6.4,17.9,13.7,23.4v6.1l-11.5,4.1-.8-2.6c-.3-1-1.1-1.9-2-2.3-1-.5-2.1-.5-3.1-.2l-14.4,5.3c-1.6.6-2.7,2.2-2.6,4l.2,3.9-11.9,4.3c-1.6.5-14.9,5-18.4,19.3C7.3,165.6.5,215.6.2,217.7c0,.5-1.5,11.4,4.6,18.5,3.3,3.8,8,5.8,14,5.8h29.1l.3,4.4c.1,2.1,1.9,3.7,3.9,3.7h48.1s0,0,0,0c2.2,0,3.9-1.8,3.9-3.9s-.1-1-.3-1.5l-.9-2.6h3.8c4.6,5.1,11.1,8.1,18,8.1h61.6c2.2,0,3.9-1.8,3.9-3.9v-76.8c0-26-24.5-35.3-25.6-35.7ZM18.8,234c-3.6,0-6.3-1-8-3-3.2-3.6-3.1-10.1-2.8-12.3,0-.5,7-51.6,10.1-64.1,2.6-10.4,12.6-13.5,13-13.6,0,0,.2,0,.2,0l9.9-3.5,4.1,64.2h-6.2c-2.2,0-3.9,1.8-3.9,3.9s1.8,3.9,3.9,3.9h6.7l1.6,24.6h-28.6ZM135.9,63.8c.2,0,.4.2.5.3,0,0,0,0,.1,0,.2.1.3.2.5.3,0,0,0,0,.1,0,2.1,1.5,3.4,4,3.4,6.7,0,4.4-3.5,8.1-7.9,8.3v-16.6s0,0,.1,0c.2,0,.4,0,.6,0,0,0,.1,0,.2,0,.5,0,1,.2,1.5.4,0,0,0,0,0,0,.2,0,.4.2.6.3,0,0,0,0,.1,0ZM60.9,79.5c-4.4-.2-7.9-3.8-7.9-8.3s1.4-5.2,3.4-6.7c0,0,0,0,.1,0,.2-.1.3-.2.5-.3,0,0,0,0,.1,0,.2-.1.4-.2.5-.3,0,0,0,0,.1,0,.2,0,.4-.2.6-.3,0,0,0,0,0,0,.5-.2,1-.3,1.5-.4,0,0,.1,0,.2,0,.2,0,.4,0,.6,0,0,0,0,0,.1,0v16.6h0ZM62.2,50.8c-.8.7-1.3,1.8-1.3,3v1.3c0,0-.2,0-.2,0-.1,0-.2,0-.3,0-.2,0-.3,0-.5,0,0,0-.2,0-.3,0-.2,0-.4,0-.6,0,0,0,0,0-.1,0-.3,0-.6.1-.9.2v-8.6c0-21.5,17.5-39,39-39s39,17.5,39,39v8.6c-.3,0-.6-.1-.9-.2,0,0,0,0-.1,0-.2,0-.4,0-.6,0,0,0-.2,0-.3,0-.2,0-.3,0-.5,0-.1,0-.2,0-.3,0,0,0-.2,0-.2,0v-1.3c0-1-.4-2-1.1-2.7l-12.6-13.5c-.6-.6-1.4-1-2.2-1.2-1-.2-2.2,0-3.1.7-.2.1-17.8,13.2-41.1,13.2s-5-.2-7.4-.4c-1.1-.1-2.2.2-3.1,1ZM68.8,82.6v-24.5c1.3,0,2.6.1,4,.1,20.4,0,36.5-8.7,42.9-12.8l9.2,9.9v27.3c0,11.9-7.5,22-18.1,25.9,0,0,0,0,0,0-.8.3-1.7.6-2.6.8,0,0,0,0,0,0-.4.1-.8.2-1.2.3,0,0-.2,0-.3,0-.4,0-.7.1-1.1.2,0,0-.1,0-.2,0-.4,0-.8.1-1.3.2,0,0-.2,0-.3,0-.3,0-.7,0-1,0-.1,0-.2,0-.4,0-.4,0-.8,0-1.3,0h-.9c-.4,0-.8,0-1.3,0-.1,0-.2,0-.4,0-.3,0-.7,0-1,0,0,0-.2,0-.3,0-.4,0-.8,0-1.2-.2,0,0-.1,0-.2,0-.4,0-.7-.1-1.1-.2,0,0-.2,0-.3,0-.4,0-.8-.2-1.2-.3,0,0,0,0,0,0-.9-.2-1.7-.5-2.6-.8,0,0,0,0,0,0-10.5-3.9-18.1-14-18.1-25.9ZM110.8,115.4v7.6l-14,10.7-14-10.7v-7.6c.4.2.8.3,1.2.5,0,0,0,0,.1,0,.5.2.9.3,1.4.5,0,0,.2,0,.3,0,.4.1.9.3,1.3.4.1,0,.3,0,.4.1.4.1.8.2,1.2.3.2,0,.4,0,.5.1.4,0,.7.1,1.1.2.2,0,.4,0,.6.1.4,0,.7,0,1.1.1.2,0,.4,0,.7,0,.4,0,.8,0,1.2,0,.2,0,.4,0,.6,0,.6,0,1.2,0,1.8,0h.9c.6,0,1.2,0,1.8,0,.2,0,.4,0,.6,0,.4,0,.8,0,1.2,0,.2,0,.4,0,.7,0,.4,0,.7,0,1.1-.1.2,0,.4,0,.6-.1.4,0,.8-.1,1.1-.2.2,0,.4,0,.5-.1.4,0,.8-.2,1.2-.3.1,0,.3,0,.4-.1.4-.1.9-.2,1.3-.4,0,0,.2,0,.3,0,.5-.1.9-.3,1.4-.5,0,0,0,0,.1,0,.4-.2.8-.3,1.2-.5ZM74.9,125.3c0,1.1.6,2.1,1.5,2.8l17.9,13.7c.7.5,1.6.8,2.4.8s1.7-.3,2.4-.8l17.9-13.7c.9-.7,1.4-1.7,1.5-2.8l1.8.7-34.7,63.4-19.9-60.8,9.1-3.2ZM55.9,242.1l-7.3-114.4,7.8-2.8,25.9,79.1.9,2.8h0s11.6,35.3,11.6,35.3h-38.9ZM100.2,233.4l-7.8-23.9h7.8v23.9ZM124.9,242.1c-5.2,0-9.9-2.4-13-6.5,0,0,0,0,0,0,0,0-.1-.2-.2-.2,0,0,0,0,0,0,0,0-.1-.1-.2-.2,0,0,0,0,0,0,0,0-.1-.1-.2-.2,0,0,0,0-.1,0,0,0-.1,0-.2-.1,0,0,0,0-.1,0,0,0-.1,0-.2-.1,0,0,0,0-.1,0,0,0-.2,0-.2,0,0,0,0,0-.1,0,0,0-.2,0-.2,0,0,0,0,0-.1,0,0,0-.1,0-.2,0,0,0-.1,0-.2,0,0,0-.1,0-.2,0,0,0-.1,0-.2,0,0,0,0,0,0,0h-.6v-24.6h16.8c9,0,16.3,7.3,16.3,16.3,0,9-7.3,16.3-16.3,16.3ZM160.5,242.1v-55c0-2.2-1.8-3.9-3.9-3.9s-3.9,1.8-3.9,3.9v55h-9.9c3.9-4.3,6.3-10,6.3-16.3,0-13.3-10.9-24.2-24.2-24.2h-2.4l10.1-29.7c.7-2.1-.4-4.3-2.5-5-2.1-.7-4.3.4-5,2.5l-11,32.2h-24.4l-.4-1.3-.2-.6,41.4-75.7,9,3.4-10.8,31.5c-.7,2.1.4,4.3,2.5,5,2.1.7,4.3-.4,5-2.5l9.1-26.5,16.8,6c1.1.4,20.4,8.1,20.4,28.3v72.9h-22Z"/>
    </g>
  </g>
</svg>