<?xml version="1.0" encoding="UTF-8"?>
<svg xmlns="http://www.w3.org/2000/svg" version="1.1" viewBox="0 0 250 236.6">
  <defs>
    <style>
      .cls-1 {
        fill: #00008f;
      }
    </style>
  </defs>
  <!-- Generator: Adobe Illustrator 28.7.10, SVG Export Plug-In . SVG Version: 1.2.0 Build 236)  -->
  <g>
    <g id="Capa_1">
      <g>
        <path class="cls-1" d="M27.4,156l1.2-8.2,16.4,2.3-1.2,8.2-16.4-2.3Z"/>
        <path class="cls-1" d="M61.5,211.1l1.2-8.2,8.2,1.2-1.2,8.2-8.2-1.2Z"/>
        <path class="cls-1" d="M249.8,105.7l-.7-8.3-83.2,7.3c-5.7.5-10.3,4.7-11.2,10.3l-3.8,22.7c-.5,4.6,2.8,8.7,7.3,9.2.3,0,.6,0,.9,0,.2,0,.5,0,.7,0l69.3-6.1,5.1,57.8-25.1,2.2c-3.6-15.6-19.2-25.3-34.8-21.7-12.6,2.9-21.7,13.8-22.4,26.7l-12.7,1.1c-1.1.1-2.2-.2-3-1-.8-.7-1.4-1.7-1.5-2.8l-.4-4.1,12.4-1.1-.7-8.3-12.4,1.1-.4-4.3,14.6-8.8c2-1.2,2.6-3.7,1.4-5.7-.2-.3-.4-.6-.6-.8l-5.4-5.4,5.4-5.4c1.6-1.6,1.6-4.2,0-5.9-.3-.3-.7-.6-1.1-.8l-14.3-7.2c.4-1.5.7-2.9,1.2-4.4l15.6-37.9c1.8-4.3,5.8-7.3,10.4-7.7l85.5-7.5c.9,0,1.9,0,2.8,0l1.2-8.2c-1.6-.2-3.1-.3-4.7-.1l-85.5,7.5c-7.7.7-14.4,5.6-17.4,12.8l-15.7,38.2c-2,6.1-3.2,12.5-3.5,18.9-.9-2.1-2-4-3.4-5.8-4.6-6.2-11.5-10.2-19.1-11.3l-6.6-.9,22.1-14.7,5.9,5.9,5.9-5.9-8.3-8.3c-1.4-1.4-3.6-1.6-5.2-.5l-29.8,19.8-27.4-44.3c-3.2-5.2-8.6-8.8-14.7-9.6L1.2,77l-1.2,8.2,41.3,5.8c3.7.5,6.9,2.6,8.8,5.8l2.6,4.2L1.2,93.8l-1.2,8.2,17.9,2.5-3.5,24.6-13.3-1.9L0,135.5l13.3,1.9-8.1,57.5-4.1-.6L0,202.5l37.2,5.2c0,16,13,28.9,29,28.9,12.9,0,24.2-8.6,27.8-20.9l12.6,1.8c.6,0,1.2.1,1.8.1,6.2,0,11.4-4.6,12.3-10.7l3.6-26,2,23c.6,6.4,5.9,11.3,12.4,11.4.4,0,.7,0,1.1,0l12.7-1.1c3.1,13.1,14.8,22.4,28.2,22.4.8,0,1.7,0,2.6-.1,14.4-1.2,25.6-12.9,26.4-27.3l39.9-3.5-.7-8.3-6.6.6-5.1-57.8,12.3-1.1-.7-8.3-12.3,1.1-2.2-24.8,15.2-1.3ZM117.2,172.9l-.6,4.1-16.4-2.3,1.2-8.2,16,2.2c0,1.4,0,2.8-.2,4.2h0ZM26.1,105.6l32.3,4.5h0s17.1,27.5,17.1,27.5l-52.8-7.4,3.5-24.6ZM86.8,210.5c-1.6,11.3-12.1,19.2-23.4,17.7-5.4-.8-10.4-3.7-13.7-8.1-6.9-9.1-5.1-22.1,4.1-29,3.6-2.7,7.9-4.2,12.4-4.2,1,0,2,0,2.9.2,11.3,1.6,19.2,12.1,17.7,23.4ZM107.9,209.3l-12.6-1.8c0-16-13.1-29-29.1-28.9-6.3,0-12.4,2.1-17.4,5.8-5,3.8-8.6,9.1-10.4,15.1l-25-3.5,8.1-57.5,61.6,8.6,16.4,2.3c6.5.8,12.2,4.7,15.2,10.5l-12.2-1.7c-4.5-.6-8.7,2.5-9.4,7.1l-1.2,8.2c-.6,4.5,2.5,8.7,7.1,9.4l16.4,2.3-1.2,8.2-12.3-1.7-1.2,8.2,12.3,1.7-.6,4.1c-.3,2.3-2.4,3.8-4.7,3.5h0ZM138.7,158.7l-4.2,4.2c-1.6,1.6-1.6,4.2,0,5.9l4.5,4.5-6.6,4-.9-9.9c-.3-4.1-.3-8.1.1-12.2l7,3.5ZM201.6,205.7c1,11.4-7.4,21.5-18.8,22.5-11.4,1-21.5-7.4-22.5-18.8-1-11.4,7.4-21.5,18.8-22.5,0,0,0,0,0,0,.6,0,1.2,0,1.8,0,10.7,0,19.7,8.2,20.6,18.9ZM228.5,132.6l-69.4,6.2,3.8-22.4c.3-1.9,1.8-3.3,3.7-3.4l59.7-5.2,2.2,24.8Z"/>
        <path class="cls-1" d="M163.7,154.8l16.5-1.4.7,8.3-16.5,1.4-.7-8.3Z"/>
        <path class="cls-1" d="M176.3,203.7l8.3-.7.7,8.3-8.3.7-.7-8.3Z"/>
        <path class="cls-1" d="M68.1,94.2l5.9-5.9-5.4-5.4h10.7c2.3,0,4.1-1.9,4.1-4.1v-10.7l13.7,13.7c1.6,1.6,4.2,1.6,5.9,0l13.7-13.7v10.7c0,2.3,1.9,4.1,4.1,4.1h14.9l-9.5,9.5,5.9,5.9,16.6-16.6c1.6-1.6,1.6-4.2,0-5.9-.8-.8-1.8-1.2-2.9-1.2h-20.7v-16.6c0-2.3-1.9-4.1-4.1-4.1-1.1,0-2.2.4-2.9,1.2l-17.8,17.8-17.8-17.8c-1.6-1.6-4.2-1.6-5.9,0-.8.8-1.2,1.8-1.2,2.9v16.6h-16.6c-2.3,0-4.1,1.9-4.1,4.1,0,1.1.4,2.2,1.2,2.9l12.4,12.4Z"/>
        <path class="cls-1" d="M93.1,49.8h8.3c0-1.6.7-3.2,1.9-4.2,5.2-5.3,5.2-13.8,0-19.2-2.3-2-2.6-5.6-.5-7.9.2-.2.4-.4.5-.5,2.5-2.6,3.9-6,3.9-9.6h-8.3c0,1.6-.7,3.2-1.9,4.2-5.2,5.3-5.2,13.8,0,19.2,2.3,2,2.6,5.6.5,7.9-.2.2-.4.4-.5.5-2.5,2.6-3.9,6-3.9,9.6Z"/>
        <path class="cls-1" d="M117.9,41.5h8.3c0-1.6.7-3.2,1.9-4.2,5.2-5.3,5.2-13.8,0-19.2-2.3-2-2.6-5.6-.5-7.9.2-.2.4-.4.5-.5,2.5-2.6,3.9-6,3.9-9.6h-8.3c0,1.6-.7,3.2-1.9,4.2-5.2,5.3-5.2,13.8,0,19.2,2.3,2,2.6,5.6.5,7.9-.2.2-.4.4-.5.5-2.5,2.6-3.9,6-3.9,9.6h0Z"/>
      </g>
    </g>
  </g>
</svg>