<?xml version="1.0" encoding="UTF-8"?>
<svg xmlns="http://www.w3.org/2000/svg" version="1.1" viewBox="0 0 250 249.9">
  <defs>
    <style>
      .cls-1 {
        fill: #00008f;
      }
    </style>
  </defs>
  <!-- Generator: Adobe Illustrator 28.7.10, SVG Export Plug-In . SVG Version: 1.2.0 Build 236)  -->
  <g>
    <g id="Capa_1">
      <g>
        <path class="cls-1" d="M201.6,186v-16.7c0-11.3-8-21-19.1-23.2l-63.4-12.7C90.5,97.4,46.9,76.5.8,76.6h-.8v8.1h.8c44.1-.1,85.8,20.1,113,54.9.6.8,1.4,1.3,2.4,1.5l53.2,10.6v5.6c0,11.1,9,20.2,20.2,20.2h4v8.1h-20.4c-15.5-24.4-47.9-31.5-72.3-16-9,5.8-16.1,14.2-20.2,24.1H0v8.1h78.1c-.6,2.7-1.1,5.3-1.3,8.1H0v8.1h93c2.3,19.9,20.3,34.2,40.2,31.9,16.8-1.9,30-15.1,31.9-31.9h32.5c8.9,0,16.1-7.2,16.1-16.1,0-7.4-5-13.8-12.1-15.6ZM189.5,169.3c-6.7,0-12.1-5.4-12.1-12.1v-4l3.6.7c7.3,1.5,12.6,7.9,12.6,15.3h-4ZM129,169.3c22.9,0,42,17.5,44.1,40.3h-8.1c-2.3-19.9-20.3-34.2-40.2-31.9-16.8,1.9-30,15.1-31.9,31.9h-8.1c2.1-22.8,21.2-40.3,44.1-40.3ZM129,241.9c-15.6,0-28.2-12.6-28.2-28.2s12.6-28.2,28.2-28.2,28.2,12.6,28.2,28.2c0,15.6-12.6,28.2-28.2,28.2ZM197.6,209.7h-16.3c-.4-5.5-1.7-11-3.8-16.1h20.2c4.5,0,8.1,3.6,8.1,8.1s-3.6,8.1-8.1,8.1Z"/>
        <path class="cls-1" d="M100.4,138.8c.7-1.4.5-3.1-.5-4.3-21.1-26.5-53.2-41.9-87-41.8h-.8c-2.2,0-4,1.8-4,4v40.3c0,2.2,1.8,4,4,4h84.7c1.5,0,3-.9,3.6-2.3ZM16.1,133v-32.2c27.3.8,53.1,12.4,71.8,32.2H16.1Z"/>
        <rect class="cls-1" x="12.1" y="149.2" width="16.1" height="8.1"/>
        <path class="cls-1" d="M129,197.6c-8.9,0-16.1,7.2-16.1,16.1s7.2,16.1,16.1,16.1,16.1-7.2,16.1-16.1-7.2-16.1-16.1-16.1ZM129,221.8c-4.5,0-8.1-3.6-8.1-8.1s3.6-8.1,8.1-8.1,8.1,3.6,8.1,8.1-3.6,8.1-8.1,8.1Z"/>
        <path class="cls-1" d="M229.8,156.8c0-2.5-.1-5.1-.4-7.6l-2.7-24.7c-.7-6.5-5.4-11.9-11.8-13.5l-3-.7,4.4-7.4c2.9-4.8,6.8-9,11.4-12.3l17.2-12.3c5.4-3.9,6.6-11.3,2.8-16.7-2.3-3.2-5.9-5-9.8-5h0c-3.6,0-7.1,1.3-9.8,3.6l-15.5,12.9c-4,3.3-7.5,7.2-10.4,11.6l-9.4,14.1-7.6-7.6,1.2-.3c6.2-1.5,11.5-5.3,15.1-10.6l9.2-13.8c2-2.9,3-6.4,3-10,0-6.6-5.3-11.9-11.9-11.9-4,0-7.7,2-9.9,5.3l-9.3,14c-1.6,2.3-4,4-6.7,4.6,4.4-10.3-.4-22.1-10.7-26.5-10.3-4.4-22.1.4-26.5,10.7-3.5,8.2-1.2,17.8,5.7,23.5l-18.8,11.8-7.3-7.3c-2.4-2.4-5.6-3.7-8.9-3.7h0c-7,0-12.6,5.6-12.6,12.6,0,3.2,1.2,6.4,3.5,8.7l10.4,13.5c2.7,3.5,6.8,5.5,11.2,5.5h0c2.8,0,5.5-.8,7.9-2.4l18-12c11.2,19,31.6,30.6,53.6,30.5h.6l2.8,25.1c.8,6.9,7.1,11.8,13.9,11,6.3-.7,11-6,11.1-12.4h0ZM157.3,48.4c6.7,0,12.1,5.4,12.1,12.1s-5.4,12.1-12.1,12.1-12.1-5.4-12.1-12.1,5.4-12.1,12.1-12.1ZM217.3,161.3c-2.3,0-4.2-1.7-4.4-4l-3.2-28.7c-.2-2-2-3.6-4-3.6h-4.3c-20.6,0-39.4-11.6-48.6-30-1-2-3.4-2.8-5.4-1.8-.2,0-.3.2-.4.3l-21.6,14.4c-1,.7-2.2,1-3.4,1h0c-1.9,0-3.7-.9-4.8-2.4l-10.6-13.7c-.1-.1-.2-.3-.3-.4-1.8-1.8-1.7-4.6,0-6.4.8-.8,2-1.3,3.1-1.3h0c1.2,0,2.3.5,3.2,1.3l9.6,9.6c1.3,1.3,3.4,1.6,5,.6l25.7-16c5.7,1.4,11.8,0,16.4-3.5h4.2c6.4,0,12.4-3.2,15.9-8.5l9.3-14c1.2-1.8,3.6-2.2,5.3-1.1,1.1.7,1.7,1.9,1.7,3.2,0,2-.6,3.9-1.7,5.5l-9.2,13.8c-2.4,3.6-6.1,6.2-10.3,7.3l-8.1,2c-2.2.5-3.5,2.7-2.9,4.9.2.7.5,1.4,1.1,1.9l16.1,16.1c1.6,1.6,4.1,1.6,5.7,0,.2-.2.4-.4.5-.6l12.1-18.1c2.5-3.7,5.4-7,8.8-9.8l15.5-12.9c1.3-1.1,3-1.7,4.7-1.7h0c2.2,0,3.9,1.8,3.9,3.9h0c0,1.3-.6,2.5-1.6,3.2l-17.2,12.3c-5.5,3.9-10.1,8.9-13.6,14.7l-7.3,12.1c-1.1,1.9-.5,4.4,1.4,5.5.3.2.7.4,1.1.5l8.3,2.1c3.1.8,5.4,3.4,5.7,6.6l2.7,24.7c.3,2.2.4,4.5.4,6.7,0,2.5-2,4.5-4.5,4.5Z"/>
        <path class="cls-1" d="M42,59.7l28.2,20.2,4.7-6.6-18-12.8h23.7c1.7,0,3.3-1.1,3.8-2.8l5-15,7.7,15.5,7.2-3.6-12.1-24.2c-.7-1.5-2.3-2.3-3.9-2.2-1.6.1-3,1.2-3.5,2.8l-7.1,21.4h-33.4c-2.2,0-4,1.8-4,4,0,1.3.6,2.5,1.7,3.3Z"/>
        <path class="cls-1" d="M121,15.5l8.9,11.2c1.2,1.5,3.3,1.9,5,1.1l23.6-11.8-5,15,7.7,2.5,8.1-24.2c.7-2.1-.4-4.4-2.5-5.1-1-.3-2.1-.3-3.1.2l-29.3,14.7L120.1,1.5c-1.4-1.7-3.9-2-5.7-.6-.9.8-1.5,1.9-1.5,3.1v32.3h8.1V15.5Z"/>
        <rect class="cls-1" x="231.9" y="175.7" width="8.1" height="23.5" transform="translate(-46.2 293.3) rotate(-59)"/>
        <rect class="cls-1" x="221.8" y="193" width="8.1" height="29.4" transform="translate(-48.4 70) rotate(-15.9)"/>
      </g>
    </g>
  </g>
</svg>