<?xml version="1.0" encoding="UTF-8"?>
<svg xmlns="http://www.w3.org/2000/svg" version="1.1" viewBox="0 0 250 250">
  <defs>
    <style>
      .cls-1 {
        fill: #00008f;
      }
    </style>
  </defs>
  <!-- Generator: Adobe Illustrator 28.7.10, SVG Export Plug-In . SVG Version: 1.2.0 Build 236)  -->
  <g>
    <g id="Capa_1">
      <g>
        <path class="cls-1" d="M57.5,85.1c-1.9-1.9-5-1.9-6.9,0-1.9,1.9-1.9,5,0,6.9,1.9,1.9,5,1.9,6.9,0,1.9-1.9,1.9-5,0-6.9Z"/>
        <path class="cls-1" d="M123.6,218.6c2.2-2.9,3.3-6.4,3.3-10.1,0-9.4-7.7-17.1-17.1-17.1H26.9c-4.6,0-8.9,1.8-12.1,5-3.2,3.2-5,7.5-5,12.1s1.2,7.3,3.3,10.1c-7.8,4.1-13.1,12.2-13.1,21.6v4.9c0,2.7,2.2,4.9,4.9,4.9h126.9c2.7,0,4.9-2.2,4.9-4.9v-4.9c0-9.4-5.3-17.5-13.1-21.6ZM21.7,203.3c1.4-1.4,3.2-2.1,5.2-2.1h83c4,0,7.3,3.3,7.3,7.3s-.8,3.8-2.1,5.2c-1.4,1.4-3.2,2.1-5.2,2.1H26.9c-4,0-7.3-3.3-7.3-7.3s.8-3.8,2.1-5.2ZM9.8,240.2c0-8.1,6.6-14.6,14.6-14.6h87.9c8.1,0,14.6,6.6,14.6,14.6H9.8Z"/>
        <path class="cls-1" d="M245.5,205.1c-1.7-2.6-3.6-4.8-5.9-6.8l-22.8-19.9c-.2-.3-.4-.5-.6-.8-.4-.4-.8-.7-1.3-.9l-13.8-12-63.9-55.7c2.6-2.7,4.1-6.3,4.1-10.1s-1.5-7.6-4.3-10.4c-1.2-1.2-2.6-2.2-4-2.9l5.9-5.9c1.7.4,3.3.7,5,.7,5,0,10-1.9,13.8-5.7,3.7-3.7,5.7-8.6,5.7-13.8s-2-10.1-5.7-13.8L116.2,5.7c-3.7-3.7-8.6-5.7-13.8-5.7s-10.1,2-13.8,5.7c-5.1,5.1-6.8,12.3-5,18.9l-58.9,58.9c-1.6-.4-3.3-.7-5.1-.7-5.2,0-10.1,2-13.8,5.7-7.6,7.6-7.6,20,0,27.6l41.4,41.4c3.8,3.8,8.8,5.7,13.8,5.7s10-1.9,13.8-5.7c5.1-5.1,6.8-12.3,5-18.9l5.9-5.9c.7,1.5,1.7,2.8,2.9,4,2.8,2.8,6.4,4.3,10.4,4.3s7.4-1.4,10.1-4l68,78.2c.2.3.4.6.7.8,0,0,.2.2.3.2l20.3,23.3c.5.6,1,1.2,1.6,1.7,5.6,5.6,12.9,8.6,20.6,8.6s2.7,0,4.1-.3c9.2-1.3,17.1-6.8,21.8-15.1,5.1-9.1,4.7-20.7-1-29.5ZM95.5,12.6c1.8-1.8,4.3-2.9,6.9-2.9s5.1,1,6.9,2.9l41.4,41.4c1.8,1.8,2.9,4.3,2.9,6.9s-1,5.1-2.9,6.9c-3.8,3.8-10,3.8-13.8,0l-41.4-41.4s0,0,0,0c-3.8-3.8-3.8-10,0-13.8ZM67.9,150.7c-3.8,3.8-10,3.8-13.8,0L12.6,109.3c-3.8-3.8-3.8-10,0-13.8,1.8-1.8,4.3-2.9,6.9-2.9s5.1,1,6.9,2.9l41.4,41.4c3.8,3.8,3.8,10,0,13.8ZM88.4,116.4l-13.7,13.7-41.4-41.4,55.2-55.2,41.4,41.4-13.7,13.7s0,0-.1.1l-27.6,27.6c0,0-.1.1-.2.2ZM105.9,126.5s0,0,0,0l-3.4,3.4c-.9.9-2.1,1.4-3.5,1.4s-2.5-.5-3.5-1.4c-.9-.9-1.4-2.2-1.4-3.5s.5-2.5,1.4-3.4l27.7-27.7c1.9-1.8,5-1.8,6.9,0,.9.9,1.4,2.2,1.4,3.5s-.5,2.5-1.4,3.5l-3.4,3.4s0,0,0,0l-20.7,20.7ZM116,130.2l14.3-14.3,60.4,52.7-22,22-52.6-60.5ZM175,198.1l23-23,7.4,6.4-23.9,23.9-6.4-7.4ZM237.9,229.9c-3.2,5.6-8.5,9.3-14.6,10.2-6.1.8-12.1-1.2-16.5-5.5-.4-.4-.7-.8-1.1-1.2,0,0,0,0,0,0l-17.8-20.4,24.9-24.9,20.4,17.8s0,0,0,0c1.5,1.3,2.9,2.9,4,4.6,3.7,5.7,4,13.5.6,19.4Z"/>
        <path class="cls-1" d="M92,50.6c-1.9-1.9-5-1.9-6.9,0l-20.7,20.7c-1.9,1.9-1.9,5,0,6.9,1,1,2.2,1.4,3.5,1.4s2.5-.5,3.5-1.4l20.7-20.7c1.9-1.9,1.9-5,0-6.9Z"/>
      </g>
    </g>
  </g>
</svg>