<?xml version="1.0" encoding="UTF-8"?>
<svg xmlns="http://www.w3.org/2000/svg" version="1.1" viewBox="0 0 201.6 250">
  <defs>
    <style>
      .cls-1 {
        fill: #00008f;
      }
    </style>
  </defs>
  <!-- Generator: Adobe Illustrator 28.7.10, SVG Export Plug-In . SVG Version: 1.2.0 Build 236)  -->
  <g>
    <g id="Capa_1">
      <g>
        <path class="cls-1" d="M0,237.9v8.1c0,2.2,1.8,4,4,4h193.5c2.2,0,4-1.8,4-4v-8.1c0-38.3-28.4-70.7-66.4-75.8,12-9.3,20.4-22.4,24.1-37.1h2c11.1,0,20.2-9,20.2-20.2s-9-20.2-20.2-20.2v-8.8c4.8-1.7,8-6.2,8.1-11.4v-8.1c0-5.4-3.6-10.1-8.8-11.6C154.5,18.6,131.1,0,104.1,0h-6.6c-27,0-50.4,18.6-56.5,44.9-5.2,1.5-8.8,6.2-8.8,11.6v8.1c0,5.1,3.2,9.7,8.1,11.4v8.8c-11.1,0-20.2,9-20.2,20.2s9,20.2,20.2,20.2h2c3.6,14.7,12.1,27.8,24.1,37.1C28.4,167.2,0,199.6,0,237.9ZM48.4,108.9v-16.1h104.8v16.1c0,2.3-.1,4.5-.4,6.8l-6.7,6.7c-4.3,4.3-10.1,6.7-16.1,6.7-7.3,0-14.3-2.9-19.5-8.1-5.5-5.2-14-5.2-19.5,0-5.2,5.2-12.2,8.1-19.5,8.1-6.1,0-11.9-2.4-16.1-6.7l-6.7-6.7c-.3-2.3-.4-4.5-.4-6.8ZM153.2,76.6v8.1H48.4v-8.1h104.8ZM173.4,104.8c0,6.7-5.4,12.1-12.1,12.1h-.5c.3-2.7.5-5.4.5-8.1v-16.1c6.7,0,12.1,5.4,12.1,12.1ZM97.5,8.1h6.6c22.3,0,41.9,14.8,48.1,36.3H49.4c6.1-21.5,25.7-36.3,48.1-36.3ZM40.3,56.5c0-2.2,1.8-4,4-4h112.9c2.2,0,4,1.8,4,4v8.1c0,2.2-1.8,4-4,4H44.4c-2.2,0-4-1.8-4-4v-8.1ZM40.3,116.9c-6.7,0-12.1-5.4-12.1-12.1s5.4-12.1,12.1-12.1v16.1c0,2.7.2,5.4.5,8.1h-.5ZM52.5,130.5c5.4,4.3,12.1,6.6,19.1,6.6,9.4,0,18.5-3.7,25.2-10.4,2.3-2.1,5.8-2.1,8.1,0,6.7,6.7,15.7,10.5,25.2,10.4,6.9,0,13.6-2.3,19.1-6.6-4.1,10.5-11.1,19.7-20.3,26.4l-8.5,6.2c-11.7,8.3-27.3,8.3-39,0l-8.5-6.2c-9.1-6.7-16.2-15.8-20.3-26.4ZM119.4,173c-4.2,10.3-16,15.2-26.3,11-5-2-9-6-11-11,11.7,5.9,25.6,5.9,37.3,0ZM72.9,169.5c2.3,15.4,16.7,26,32,23.7,12.3-1.8,21.9-11.5,23.7-23.7,36.3,2,64.8,32,64.9,68.4v4h-32.3v-28.2h-8.1v28.2H48.4v-28.2h-8.1v28.2H8.1v-4c0-36.4,28.5-66.4,64.9-68.4h0Z"/>
        <path class="cls-1" d="M127,121c7.8,0,14.1-6.3,14.1-14.1v-6c0-2.2-1.8-4-4-4-.3,0-.5,0-.8,0l-20.2,4c-1.9.4-3.2,2-3.2,4v2c0,7.8,6.3,14.1,14.1,14.1ZM133.1,105.7v1.1c0,3.3-2.7,6-6,6-2.9,0-5.3-2-5.9-4.8l12-2.4Z"/>
        <path class="cls-1" d="M74.6,121c7.8,0,14.1-6.3,14.1-14.1v-2c0-1.9-1.3-3.6-3.2-4l-20.2-4c-2.2-.4-4.3,1-4.8,3.1,0,.3,0,.5,0,.8v6c0,7.8,6.3,14.1,14.1,14.1ZM68.5,105.7l12,2.4c-.7,3.3-3.9,5.4-7.2,4.7-2.8-.6-4.8-3.1-4.8-5.9v-1.1Z"/>
      </g>
    </g>
  </g>
</svg>