<?xml version="1.0" encoding="UTF-8"?>
<svg xmlns="http://www.w3.org/2000/svg" version="1.1" viewBox="0 0 250 91.9">
  <defs>
    <style>
      .cls-1 {
        fill: #fff;
      }
    </style>
  </defs>
  <!-- Generator: Adobe Illustrator 28.7.10, SVG Export Plug-In . SVG Version: 1.2.0 Build 236)  -->
  <g>
    <g id="Capa_1">
      <g>
        <path class="cls-1" d="M62.7,31.8C62.7,14.5,48.7.4,31.4.4S0,14.5,0,31.8s13,30.2,29.3,31.3v-16.5c-7.3-1-12.9-7.2-12.9-14.8s6.7-15,15-15,15,6.7,15,15-.9,5.9-2.5,8.3h1.8v3.3h3.2v3.3h3.5v3.2h2.9v2.3c4.7-5.5,7.6-12.6,7.6-20.4Z"/>
        <path class="cls-1" d="M87.3,26.2c1.5-1.7,2.3-4,2.3-6.1,0-3.2-1.7-5.8-5-7-1.6-.6-5.7-1.3-8.8-1.7-1.2-.2-3.7-.5-3.7-2.7s1.4-3,4.3-3,3.7.7,4.7,1.3c1.1.6,1.9,1.4,2.8,2.3l5.3-3.8c-2.5-2.2-6.1-5.4-12.7-5.4s-11.5,2.2-11.5,9.6,6,7.4,7.7,7.8c1.5.3,3.1.5,4.7.7,2.1.3,5,.6,5,2.9s-2.4,3.3-5.3,3.3-3.6-.4-5.5-1.4c-1.4-.8-2-1.4-2.8-2.2l-5.4,3.5c1.8,2.1,5,5.8,13.1,5.8s8.2-.9,10.8-3.9ZM177.7,30c8.3,0,11.4-5.9,11.4-11.3s-1.9-10.7-10.6-11.2c-8.1-.4-12.2,4.7-12.2,11.2s5.4,11.3,11.4,11.3ZM173.6,14.5c.9-1.3,1.9-1.9,3.7-2.1.9,0,2.4,0,3.7,1.2,1.2,1.1,1.7,3,1.7,5.3,0,3.3-1.7,6.1-5,6.1s-5.1-3-5.1-6.3.3-2.9,1.1-4.1ZM161.1,17.4c0-2.7.9-3.1,3.9-3.7l2.1-.3v-5.5c-3.3.3-4.8,1.3-6.1,2.4v-2.2h-6.1v21.3h6.3v-11.9ZM101.1,30.2c3.4,0,6.2-1.3,8-3,1.1-1,1.8-2.1,2.6-3.2l-4.7-2.4c-.8,1.5-1.9,3.7-5.4,3.7s-4.9-2.6-4.8-5.3h15.2c0-2.4-.2-6.5-3-9.5-2.7-2.9-6.4-3-7.6-3-8.4,0-10.9,6.6-10.9,11.7s4.4,11,10.7,11ZM98.1,13.4c.6-.7,1.7-1.4,3.2-1.4s2.3.4,3,1.2c.9.9,1.1,2.1,1.2,3h-8.6c.2-.9.4-1.9,1.3-2.8ZM127.4,10.1c-.9-.9-2.4-2.3-5.7-2.3-7,0-9,6.1-9,10.4s1.1,6.9,3.9,8.8c1.4.9,3.1,1.4,4.8,1.4,2.9,0,4.4-1,5.6-1.8v2.3c0,1.7,0,4-3.8,4s-1.6-.2-2-.4c-1.7-.8-1.7-2.1-1.8-3h-6.5c0,1.1,0,3.3,1.6,5,1.1,1.2,3.9,2.6,8.1,2.6s5.1-.3,7.2-1.6c3.1-1.8,3.2-4.5,3.2-6.8V8.1h-5.9v2ZM123.1,23.6c-3.9,0-4-3.7-4-5.5,0-3,.7-5.6,3.7-5.7,1.8,0,2.9.8,3.4,1.5.7,1,.8,3.1.8,4.1,0,3-.7,5.5-3.9,5.5ZM147.3,27.3v2h6.3V8.1h-6.3v13.3c0,1.1,0,2.2-1.4,3-.9.5-1.8.5-2.2.5-1.3,0-2.1-.6-2.5-1.1-.5-.7-.5-1.6-.5-2.5v-13.2h-6.3v13.4c0,3.5.2,4.7,1.3,6.3,1.5,2,4,2.2,5.4,2.2s2.8-.3,4-1c1.1-.6,1.5-1,2.1-1.7Z"/>
        <path class="cls-1" d="M75.6,63.7v-28.7h-7.2v28.7h7.2ZM84.4,44.4v-1.9h-6.3v21.2h6.3v-11.5c0-2.6,0-5.3,3.3-5.3s2.3.5,2.8,1.6c.2.6.3,1.3.3,3.2v11.9h6.2v-14.5c0-3.3-.6-5.2-2.8-6.4-1.1-.6-2.5-.9-3.8-.9s-2.9.4-3.9.8c-1.1.5-1.5,1-2.1,1.7ZM107,46.4h4.1v-3.8h-4.1v-6.2h-6.2v6.2h-3.1v3.8h3.1v10.6c0,2,0,3.5.9,4.8,1.3,1.9,3.7,2.1,5.9,2.1s2-.1,3.3-.3v-4.9h-2.2c-1.7,0-1.7-1-1.6-2.3v-10ZM212,42.8c-1.1-.6-2.5-.9-3.8-.9s-2.9.4-3.9.8c-1.1.5-1.5,1-2.1,1.7v-1.9h-6.3v21.2h6.3v-11.5c0-2.6,0-5.3,3.3-5.3s2.3.5,2.8,1.6c.2.6.3,1.3.3,3.2v11.9h6.2v-14.5c0-3.3-.6-5.2-2.8-6.4ZM191.7,44.8c-2.7-2.9-6.4-3-7.6-3-8.4,0-10.9,6.6-10.9,11.7s4.4,11,10.7,11,6.2-1.3,8-3c1.1-1,1.8-2.1,2.6-3.2l-4.7-2.4c-.8,1.5-1.9,3.7-5.4,3.7s-4.9-2.6-4.8-5.3h15.2c0-2.4-.2-6.5-3-9.5ZM179.6,50.5c.2-.9.4-1.9,1.3-2.8.6-.7,1.7-1.4,3.2-1.4s2.3.4,3.1,1.2c.9.9,1.1,2.1,1.2,3h-8.7ZM165.7,44.4c-.9-.9-2.4-2.3-5.7-2.3-7,0-9,6.1-9,10.4s1.1,6.9,3.9,8.8c1.4.9,3.1,1.4,4.8,1.4,2.9,0,4.4-1,5.6-1.8v2.3c0,1.7,0,4-3.8,4s-1.6-.2-2-.4c-1.7-.8-1.7-2.1-1.8-3h-6.5c0,1.1,0,3.3,1.6,5,1.1,1.2,3.9,2.6,8.1,2.6s5.1-.3,7.2-1.6c3.1-1.8,3.2-4.5,3.3-6.8v-20.3h-5.9v1.9ZM161.5,58c-3.9,0-4-3.7-4-5.5,0-3,.7-5.6,3.7-5.7,1.8,0,2.9.8,3.4,1.5.7,1,.8,3.1.8,4.1,0,3-.7,5.5-3.9,5.5ZM239.7,59.6c-3.4,0-4.9-2.6-4.8-5.3h15.2c0-2.4-.2-6.5-3-9.5-2.7-2.9-6.4-3-7.6-3-8.4,0-10.9,6.6-10.9,11.7s4.4,11,10.7,11,6.2-1.3,8-3c1.1-1,1.8-2.1,2.6-3.2l-4.7-2.4c-.8,1.5-1.9,3.7-5.4,3.7ZM236.1,47.7c.6-.7,1.7-1.4,3.2-1.4s2.3.4,3.1,1.2c.9.9,1.1,2.1,1.2,3h-8.7c.2-.9.4-1.9,1.3-2.8ZM224.9,56.3v-10h4.1v-3.8h-4.1v-6.2h-6.2v6.2h-3.1v3.8h3.1v10.6c0,2,0,3.5.9,4.8,1.3,1.9,3.7,2.1,5.9,2.1s1.9-.1,3.3-.3v-4.9h-2.2c-1.7,0-1.7-1-1.6-2.3ZM129.7,44.8c-2.7-2.9-6.4-3-7.6-3-8.4,0-10.9,6.6-10.9,11.7s4.4,11,10.7,11,6.2-1.3,8-3c1.1-1,1.8-2.1,2.6-3.2l-4.7-2.4c-.8,1.5-2,3.7-5.4,3.7s-4.9-2.6-4.8-5.3h15.2c0-2.4-.2-6.5-3-9.5ZM117.6,50.5c.2-.9.4-1.9,1.3-2.8.6-.7,1.7-1.4,3.2-1.4s2.3.4,3,1.2c.9.9,1.1,2.1,1.2,3h-8.7ZM133.9,63.7h6.3v-28.7h-6.3v28.7ZM143,39.8h6.2v-4.8h-6.2v4.8ZM143,63.7h6.2v-21.2h-6.2v21.2Z"/>
        <path class="cls-1" d="M92.6,70.4c-3.3,0-5,1.4-6.2,2.5-1.1-1.2-2.4-2.5-5.8-2.5s-5.2,1.9-6,2.7v-2.2h-6.1v21h6.1v-12c0-1.5,0-3.1,1.4-4.1.6-.4,1.2-.5,1.7-.5,1,0,1.9.4,2.4,1.1.6.8.6,2.1.6,3v12.4h6.1v-11.4c0-2.3,0-3.5,1.2-4.4.6-.5,1.4-.7,2-.7s2.1.1,2.7,1.9c.2.8.2,2.4.2,3.6v11h6.1v-13.7c0-2.3,0-3.7-.6-4.8-.6-1.3-2.4-3-5.9-3ZM119.6,70.9h-6.6l-3,5.4-2.8-5.4h-7l6.4,9.6-7.1,11.4h6.8l3.5-6.5,4,6.5h6.6l-7.1-11.2,6.4-9.8Z"/>
        <path class="cls-1" d="M60.8,59.9h-3.3v-3.4h-3.4v-3.1h-2.9v-3.1h-3.4v-3.1h-3.1v-3.3h-3.3v-3.3h-2.9v-3.1h-3.1v-3.3h-3.8v45h3.4v-3.4h3.1v-3.3h3.4v-3.3h2.9v3.3h3.3v6.7h3.4v6.1h6.4v6.7h6.4v-6.7h-6.3v-6.3h-3.1v-6h-3.3v-6.7h12.8v-3h-3.1v-3.4Z"/>
      </g>
    </g>
  </g>
</svg>