<?xml version="1.0" encoding="UTF-8"?>
<svg xmlns="http://www.w3.org/2000/svg" version="1.1" viewBox="0 0 250 250">
  <defs>
    <style>
      .cls-1 {
        fill: #00008f;
      }

      .cls-2 {
        fill: #fff;
      }

      .cls-3 {
        fill: #ff1721;
      }
    </style>
  </defs>
  <!-- Generator: Adobe Illustrator 28.7.10, SVG Export Plug-In . SVG Version: 1.2.0 Build 236)  -->
  <g>
    <g id="Capa_1">
      <g>
        <rect class="cls-1" width="250" height="250"/>
        <g>
          <polygon class="cls-3" points="154.9 123.5 250 0 235.9 0 140.6 123.5 154.9 123.5"/>
          <path class="cls-2" d="M191,178.6c4.4,12.2,13.3,43.9,16.9,46.4h-23.6s0-4.7-1.1-8.3c-1-3.6-9.5-31.1-9.5-31.1h-37.4l-5.9,8.3s7.1,22.2,7.5,23.2c.8,2,4.1,7.8,4.1,7.8h-22.6s-.6-3.4-.8-4.8c-.2-1.1-2.1-7.4-2.1-7.4,0,0-5.1,5.6-6.5,8.2-1.4,2.6-2,3.9-2,3.9h-17.7s-.6-3.4-.8-4.8c-.2-1.1-2.3-7.9-2.3-7.9,0,0-4.9,6-6.3,8.6-1.4,2.6-2,4-2,4h-17.5s4.9-4.7,6.7-6.7c2.9-3.4,13.8-17.6,13.8-17.6l-4.3-15.1h-37.2s-21.2,27.8-22,28.7c-.8.9-7,9.7-7.2,10.7H0v-7c.2-.2.4-.4.4-.4.3-.2,16.1-19.8,30.5-39,13-16.8,25.2-33.1,26.2-34.7,2.6-3.8,6.3-11.9,6.3-11.9h19.2s.6,7.5,1.2,9.3c.5,1.6,12.2,40,12.5,40.4l6.5-8.3-11.1-34.1s-2.6-6.4-3.4-7.4h22.4s-.2,3.3.7,6.1c.9,2.8,5.7,20.2,5.7,20.2,0,0,15.3-19.2,16.2-20.6,1.7-2.3,1.9-5.7,1.9-5.7h18.7s-3.4,2.5-9.4,10.1c-2,2.6-21.7,27.6-21.7,27.6,0,0,1.7,5.9,2.6,8.8.2.8.4,1.4.4,1.5s.4-.5,1.2-1.5c5.1-6.5,28.3-36.8,29.7-39.4,1.1-2.1,2.8-4.5,3.8-7.1h18.2s.4,5.4,1,6.9l11.4,39.6ZM163.3,149.8c-2.7,5.8-18.5,25-18.5,25h25s-4.8-14.9-5.7-18.3c-.7-2.7-.5-6.1-.5-6.5s0-.8-.3-.2ZM67.3,149.8c-2.7,5.8-18.5,25-18.5,25h25s-4.8-14.9-5.7-18.3c-.7-2.7-.5-6.1-.5-6.5s0-.8-.3-.2ZM104.9,208l6.9-9.4c-.6-.7-4.5-12.4-4.5-12.4l-6.6,8.6,4.3,13.2Z"/>
        </g>
      </g>
    </g>
  </g>
</svg>