<?xml version="1.0" encoding="UTF-8"?>
<svg xmlns="http://www.w3.org/2000/svg" version="1.1" viewBox="0 0 250 45.6">
  <defs>
    <style>
      .cls-1 {
        fill: #f79e1b;
      }

      .cls-2 {
        fill: #ff5a00;
      }

      .cls-3 {
        fill: #1434cb;
      }

      .cls-4 {
        fill: #fff;
      }

      .cls-5 {
        fill: #016fd0;
      }

      .cls-6 {
        fill: #eb001b;
      }

      .cls-7 {
        fill: #f59e00;
      }
    </style>
  </defs>
  <!-- Generator: Adobe Illustrator 28.7.10, SVG Export Plug-In . SVG Version: 1.2.0 Build 236)  -->
  <g>
    <g id="Capa_1">
      <g>
        <g>
          <path d="M10,40.9c-.2-.2-.4-.3-.6-.4-.2,0-.5-.1-.8-.1s-.3,0-.5,0c-.2,0-.3,0-.5.1-.1,0-.3.2-.4.3-.1.1-.3.2-.4.4-.2-.3-.4-.5-.7-.6-.3-.2-.6-.2-.9-.2s-.2,0-.4,0c-.1,0-.3,0-.4.1-.1,0-.2.1-.4.2-.1,0-.2.2-.3.3v-.6h-1v4.8h1v-2.7c0-.2,0-.4,0-.5,0-.2.2-.3.3-.4.1-.1.2-.2.4-.2.1,0,.3,0,.5,0,.3,0,.6.1.8.3.2.2.3.5.3.9v2.7h1v-2.7c0-.2,0-.4.1-.5,0-.2.1-.3.3-.4s.2-.2.4-.2c.1,0,.3,0,.5,0,.3,0,.6.1.8.3.2.2.3.5.3.9v2.7h1v-3c0-.3,0-.5-.1-.8,0-.2-.2-.4-.4-.6"/>
          <path d="M15.4,41.1c-.2-.2-.4-.4-.6-.5-.2-.1-.5-.2-.9-.2s-.6,0-.9.2c-.3.1-.5.3-.8.5-.2.2-.4.5-.5.8-.1.3-.2.6-.2,1s0,.7.2,1c.1.3.3.6.5.8.2.2.5.4.8.5.3.1.6.2.9.2s.6,0,.9-.2.5-.3.6-.5v.6h1v-4.8h-1v.6ZM15.4,43.5c0,.2-.2.3-.3.5-.1.1-.3.2-.5.3-.2,0-.4.1-.6.1s-.4,0-.6-.1c-.2,0-.3-.2-.5-.3-.1-.1-.2-.3-.3-.5,0-.2-.1-.4-.1-.6s0-.4.1-.6c0-.2.2-.3.3-.5.1-.1.3-.2.5-.3.2,0,.4-.1.6-.1s.4,0,.6.1c.2,0,.3.2.5.3.1.1.2.3.3.5,0,.2.1.4.1.6s0,.4-.1.6"/>
          <path d="M21.3,42.9c-.3-.2-.7-.4-1.2-.5h-.5c-.1,0-.2-.1-.3-.1,0,0-.2,0-.2,0,0,0-.1,0-.2-.1,0,0,0-.1,0-.2,0-.2,0-.3.2-.4.2-.1.4-.2.7-.2s.3,0,.4,0c.1,0,.3,0,.4,0,.1,0,.2,0,.4.1.1,0,.2,0,.3.1l.5-.8c-.2-.2-.5-.3-.9-.4-.3,0-.7-.1-1.1-.1s-.6,0-.8.1c-.2,0-.5.2-.6.3-.2.1-.3.3-.4.5,0,.2-.1.4-.1.6,0,.4.1.7.4.9s.7.4,1.2.5h.5c.3.1.5.2.6.3.1,0,.2.2.2.3s0,.3-.3.4c-.2.1-.5.2-.8.2s-.4,0-.5,0c-.2,0-.3,0-.4-.1-.1,0-.2-.1-.3-.2-.1,0-.2-.1-.3-.2l-.5.8c.2.1.4.2.6.3.2,0,.4.1.6.2.2,0,.4,0,.5,0,.2,0,.3,0,.4,0,.3,0,.7,0,.9-.1.3,0,.5-.2.7-.3.2-.1.3-.3.4-.5,0-.2.1-.4.1-.6,0-.4-.1-.7-.4-1"/>
          <path d="M31.1,41.1c-.2-.2-.4-.4-.7-.5-.3-.1-.6-.2-.9-.2s-.7,0-1,.2c-.3.1-.5.3-.8.5-.2.2-.4.5-.5.8-.1.3-.2.7-.2,1s0,.7.2,1c.1.3.3.6.5.8.2.2.5.4.8.5.3.1.6.2,1,.2s.7,0,1-.2c.3,0,.6-.3.9-.5l-.5-.7c-.2.2-.4.3-.7.4-.2,0-.5.1-.7.1s-.3,0-.5,0c-.2,0-.3-.1-.4-.2-.1,0-.2-.2-.3-.4s-.2-.3-.2-.6h3.5c0,0,0-.1,0-.2,0,0,0-.1,0-.2,0-.4,0-.7-.2-1-.1-.3-.3-.6-.5-.8M28.1,42.5c0-.2,0-.3.1-.5,0-.1.2-.3.3-.4.1-.1.2-.2.4-.2.1,0,.3,0,.5,0,.3,0,.6.1.8.3.2.2.3.5.4.9h-2.5Z"/>
          <path d="M45,41.1c-.2-.2-.4-.4-.6-.5-.2-.1-.5-.2-.9-.2s-.7,0-.9.2c-.3.1-.5.3-.8.5-.2.2-.4.5-.5.8-.1.3-.2.6-.2,1s0,.7.2,1c.1.3.3.6.5.8.2.2.5.4.8.5.3.1.6.2.9.2s.6,0,.9-.2c.2-.1.5-.3.6-.5v.6h1v-4.8h-1v.6ZM44.9,43.5c0,.2-.2.3-.3.5-.1.1-.3.2-.5.3-.2,0-.4.1-.6.1s-.4,0-.6-.1c-.2,0-.3-.2-.5-.3-.1-.1-.2-.3-.3-.5,0-.2-.1-.4-.1-.6s0-.4.1-.6c0-.2.2-.3.3-.5.1-.1.3-.2.5-.3.2,0,.4-.1.6-.1s.4,0,.6.1c.2,0,.3.2.5.3.1.1.2.3.3.5,0,.2.1.4.1.6s0,.4-.1.6"/>
          <path d="M25.7,44.3c-.2,0-.3,0-.5,0s-.2,0-.3,0c0,0-.2,0-.2-.2,0,0-.1-.2-.2-.3,0-.1,0-.3,0-.4v-2.1h1.7v-1h-1.7v-1.5h-1v1.5h-1v1h1v2.1c0,.6.1,1.1.4,1.4.3.3.7.5,1.3.5s.6,0,.8-.1c.2,0,.3-.1.4-.2l-.4-.9c-.1,0-.2.1-.3.1"/>
          <path d="M35.2,40.4c-.3,0-.6,0-.8.2-.2.1-.4.4-.6.6v-.6h-.9v4.8h1v-2.6c0-.2,0-.4,0-.5,0-.2.1-.3.2-.4.1-.1.2-.2.4-.3.1,0,.3,0,.5,0s.3,0,.4,0c0,0,.1,0,.2,0l.3-1c0,0-.2,0-.3,0-.1,0-.3,0-.4,0"/>
          <path d="M49.7,40.4c-.3,0-.6,0-.8.2-.2.1-.4.4-.6.6v-.6h-1v4.8h1v-2.6c0-.2,0-.4,0-.5,0-.2.1-.3.2-.4,0-.1.2-.2.4-.3.1,0,.3,0,.5,0s.3,0,.4,0c0,0,.1,0,.2,0l.3-1c0,0-.2,0-.3,0-.1,0-.3,0-.4,0"/>
          <path d="M54.6,38.5v2.5c-.2-.2-.4-.4-.6-.5-.2-.1-.5-.2-.9-.2s-.7,0-.9.2c-.3.1-.5.3-.8.5-.2.2-.4.5-.5.8-.1.3-.2.6-.2,1s0,.7.2,1c.1.3.3.6.5.8.2.2.5.4.8.5.3.1.6.2.9.2s.6,0,.9-.2c.2-.1.5-.3.6-.5v.6h1v-6.7h-1ZM54.6,43.5c0,.2-.2.3-.3.5-.1.1-.3.2-.5.3-.2,0-.4.1-.6.1s-.4,0-.6-.1c-.2,0-.3-.2-.5-.3-.1-.1-.2-.3-.3-.5,0-.2-.1-.4-.1-.6s0-.4.1-.6c0-.2.2-.3.3-.5.1-.1.3-.2.5-.3.2,0,.4-.1.6-.1s.4,0,.6.1c.2,0,.3.2.5.3.1.1.2.3.3.5,0,.2.1.4.1.6s0,.4-.1.6"/>
          <path d="M37.7,41.8c.1-.1.3-.2.5-.3.2,0,.4-.1.6-.1s.5,0,.7.1c.2,0,.4.2.5.3l.5-.8c-.2-.1-.4-.3-.6-.4-.3-.1-.7-.2-1-.2s-.7,0-1,.2c-.3.1-.6.3-.8.5-.2.2-.4.5-.5.8-.1.3-.2.6-.2,1s0,.7.2,1c.1.3.3.6.5.8.2.2.5.4.8.5.3.1.7.2,1,.2s.7,0,1-.2c.2-.1.5-.2.6-.4l-.5-.8c-.1.1-.3.2-.5.3-.2,0-.4.1-.7.1s-.4,0-.6-.1c-.2,0-.3-.2-.5-.3-.1-.1-.2-.3-.3-.5,0-.2-.1-.4-.1-.6s0-.4.1-.6c0-.2.2-.4.3-.5"/>
          <path d="M57.9,44.6c0,0,.1,0,.2,0,0,0,.1,0,.2.1,0,0,0,0,.1.2,0,0,0,.1,0,.2s0,.1,0,.2c0,0,0,.1-.1.2,0,0,0,0-.2.1,0,0-.1,0-.2,0s-.1,0-.2,0c0,0-.1,0-.2-.1s0,0-.1-.2c0,0,0-.1,0-.2s0-.1,0-.2c0,0,0-.1.1-.2,0,0,.1,0,.2-.1,0,0,.1,0,.2,0M57.9,45.4s0,0,.1,0c0,0,0,0,.1,0,0,0,0,0,0-.1,0,0,0,0,0-.1s0,0,0-.1c0,0,0,0,0-.1,0,0,0,0-.1,0,0,0,0,0-.1,0s0,0-.1,0c0,0,0,0-.1,0,0,0,0,0,0,.1,0,0,0,0,0,.1s0,0,0,.1c0,0,0,0,0,.1,0,0,0,0,.1,0,0,0,0,0,.1,0M57.9,44.8c0,0,.1,0,.1,0,0,0,0,0,0,.1s0,0,0,0c0,0,0,0,0,0v.2c.1,0,0,0,0,0v-.2h-.1v.2h-.1v-.4h.2ZM57.8,45h0c0,0,0,0,0,0,0,0,0,0,0,0,0,0,0,0,0,0s0,0,0,0c0,0,0,0,0,0h0Z"/>
          <path class="cls-6" d="M22.4,18.1c0-5.7,2.7-10.9,6.9-14.2-3.1-2.4-7-3.9-11.2-3.9C8.1,0,0,8.1,0,18.1s8.1,18.1,18.1,18.1,8.1-1.5,11.2-3.9c-4.2-3.3-6.9-8.4-6.9-14.2"/>
          <path class="cls-2" d="M22.4,18.1c0,5.7,2.7,10.9,6.9,14.2,4.2-3.3,6.9-8.4,6.9-14.2s-2.7-10.9-6.9-14.2c-4.2,3.3-6.9,8.4-6.9,14.2"/>
          <path class="cls-7" d="M57.3,27.8v-.5h-.2c0-.1.6-.1.6-.1h0c0,.1-.2.1-.2.1v.5h-.2ZM58.5,27.8v-.5l-.2.4h-.2l-.2-.4v.5h-.2v-.7h.2l.2.4.2-.4h.2v.7h-.2Z"/>
          <path class="cls-1" d="M40.5,0c-4.2,0-8.1,1.5-11.2,3.9,4.2,3.3,6.9,8.4,6.9,14.2s-2.7,10.9-6.9,14.2c3.1,2.4,7,3.9,11.2,3.9,10,0,18.1-8.1,18.1-18.1S50.5,0,40.5,0"/>
        </g>
        <path id="path3789" class="cls-3" d="M139.1,7.6c-6.7,0-12.6,3.4-12.6,9.8s10.5,7.8,10.5,11.5-1.8,2.9-4.8,2.9c-4.3,0-7.5-1.9-7.5-1.9l-1.4,6.4s3.7,1.6,8.6,1.6c7.3,0,13-3.6,13-10.1s-10.6-8.2-10.6-11.6,1.5-2.5,4.5-2.5,6.2,1.4,6.2,1.4l1.3-6.2s-3-1.3-7.3-1.3h0ZM78.2,8.1l-.2.9s2.8.5,5.3,1.5c3.2,1.2,3.5,1.9,4,4l6,23h8l12.3-29.4h-8l-7.9,20-3.2-17c-.3-1.9-1.8-3-3.6-3h-12.7ZM116.9,8.1l-6.3,29.4h7.6l6.2-29.4h-7.6ZM159.2,8.1c-1.8,0-2.8,1-3.5,2.7l-11.1,26.7h8l1.5-4.5h9.7l.9,4.5h7l-6.1-29.4h-6.4ZM160.3,16l2.4,11h-6.3l4-11h0Z"/>
        <g id="layer1">
          <path id="path3078" class="cls-5" d="M204.3,0h45.6v24.6l-2.3,3.5,2.3,3.1v14.3h-45.6v-23.2l1.4-1.6-1.4-1.6V0Z"/>
          <path id="path3082" class="cls-4" d="M213.2,31.7v-7.2h7.6l.8,1.1.8-1.1h27.5v6.7s-.7.5-1.6.5h-15.2l-.9-1.1v1.1h-3v-1.9s-.4.3-1.3.3h-1v1.7h-4.5l-.8-1.1-.8,1.1h-7.5Z"/>
          <path id="path3080" class="cls-4" d="M204.3,19.2l1.7-4h3l1,2.2v-2.2h3.7l.6,1.6.6-1.6h16.5v.8s.9-.8,2.3-.8h5.3s1,2.2,1,2.2v-2.2h3.1l.8,1.3v-1.3h3.1v7.2h-3.1l-.8-1.3v1.3h-4.5l-.5-1.1h-1.2l-.4,1.1h-3.1c-1.2,0-2-.8-2-.8v.8h-4.6l-.9-1.1v1.1h-17.2l-.5-1.1h-1.2l-.5,1.1h-2.1v-3.2Z"/>
          <path id="path3046" class="cls-5" d="M206.6,16.1l-2.3,5.4h1.5l.4-1.1h2.5l.4,1.1h1.5l-2.3-5.4h-1.7ZM207.5,17.3l.8,1.9h-1.5l.8-1.9Z"/>
          <path id="path3048" class="cls-5" d="M210.9,21.5v-5.4h2.1s1.2,3.5,1.2,3.5l1.2-3.5h2.1v5.4h-1.3v-3.9l-1.4,3.9h-1.2l-1.4-3.9v3.9h-1.3Z"/>
          <path id="path3050" class="cls-5" d="M218.5,21.5v-5.4h4.4v1.2h-3v.9h2.9v1.1h-2.9v1h3v1.2h-4.4Z"/>
          <path id="path3052" class="cls-5" d="M223.6,16.1v5.4h1.3v-1.9h.6l1.6,1.9h1.6l-1.8-2c.7,0,1.5-.7,1.5-1.6s-.9-1.7-1.9-1.7h-3ZM224.9,17.3h1.5c.4,0,.6.3.6.6s-.3.6-.6.6h-1.6v-1.1h0Z"/>
          <path id="path3054" class="cls-5" d="M230.4,21.5h-1.4v-5.4h1.4v5.4Z"/>
          <path id="path3056" class="cls-5" d="M233.6,21.5h-.3c-1.4,0-2.3-1.1-2.3-2.7s.9-2.7,2.7-2.7h1.5v1.3h-1.5c-.7,0-1.2.6-1.2,1.4s.6,1.5,1.4,1.5h.4l-.6,1.2Z"/>
          <path id="path3058" class="cls-5" d="M236.5,16.1l-2.3,5.4h1.5l.4-1.1h2.5l.4,1.1h1.5l-2.3-5.4h-1.7ZM237.4,17.3l.8,1.9h-1.5l.8-1.9h0Z"/>
          <path id="path3060" class="cls-5" d="M240.7,21.5v-5.4h1.7l2.2,3.4v-3.4h1.3v5.4h-1.6l-2.2-3.5v3.5h-1.3Z"/>
          <path id="path3062" class="cls-5" d="M214.1,30.8v-5.4h4.4v1.2h-3v.9h2.9v1.1h-2.9v1h3v1.2h-4.4Z"/>
          <path id="path3064" class="cls-5" d="M235.5,30.8v-5.4h4.4v1.2h-3v.9h2.9v1.1h-2.9v1h3v1.2h-4.4Z"/>
          <path id="path3066" class="cls-5" d="M218.6,30.8l2.1-2.6-2.2-2.7h1.7l1.3,1.7,1.3-1.7h1.6l-2.1,2.7,2.1,2.7h-1.7l-1.3-1.6-1.2,1.6h-1.7Z"/>
          <path id="path3068" class="cls-5" d="M224.6,25.5v5.4h1.4v-1.7h1.4c1.2,0,2.1-.6,2.1-1.9s-.7-1.8-1.9-1.8h-3ZM226,26.7h1.5c.4,0,.7.2.7.6s-.3.6-.7.6h-1.5v-1.2h0Z"/>
          <path id="path3072" class="cls-5" d="M230.1,25.5v5.4h1.3v-1.9h.6l1.6,1.9h1.6l-1.8-2c.7,0,1.5-.7,1.5-1.6s-.9-1.7-1.9-1.7h-3,0ZM231.4,26.7h1.5c.4,0,.6.3.6.6s-.3.6-.6.6h-1.6v-1.1Z"/>
          <path id="path3074" class="cls-5" d="M240.5,30.8v-1.2h2.7c.4,0,.6-.2.6-.4s-.2-.5-.6-.5h-1.2c-1.1,0-1.6-.6-1.6-1.6s.5-1.7,2.1-1.7h2.6l-.6,1.2h-2.3c-.4,0-.6.2-.6.4s.2.5.5.5h1.3c1.2,0,1.7.7,1.7,1.5s-.6,1.7-1.7,1.7h-2.9Z"/>
          <path id="path3076" class="cls-5" d="M245.4,30.8v-1.2h2.7c.4,0,.6-.2.6-.4s-.2-.5-.6-.5h-1.2c-1.1,0-1.6-.6-1.6-1.6s.5-1.7,2.1-1.7h2.6l-.6,1.2h-2.3c-.4,0-.6.2-.6.4s.2.5.5.5h1.3c1.2,0,1.7.7,1.7,1.5s-.6,1.7-1.7,1.7h-2.9Z"/>
        </g>
      </g>
    </g>
  </g>
</svg>