<?xml version="1.0" encoding="UTF-8"?>
<svg xmlns="http://www.w3.org/2000/svg" version="1.1" viewBox="0 0 250 187.5">
  <defs>
    <style>
      .cls-1 {
        fill: #ff1721;
      }
    </style>
  </defs>
  <!-- Generator: Adobe Illustrator 28.7.10, SVG Export Plug-In . SVG Version: 1.2.0 Build 236)  -->
  <g>
    <g id="Capa_1">
      <g>
        <path class="cls-1" d="M18.7,37.5h212.5c10.4,0,18.7-8.4,18.7-18.7S241.6,0,231.3,0H18.7C8.4,0,0,8.4,0,18.7s8.4,18.7,18.7,18.7Z"/>
        <path class="cls-1" d="M231.3,75H18.7c-10.4,0-18.7,8.4-18.7,18.7s8.4,18.7,18.7,18.7h212.5c10.4,0,18.7-8.4,18.7-18.7s-8.4-18.7-18.7-18.7Z"/>
        <path class="cls-1" d="M231.3,150H18.7c-10.4,0-18.7,8.4-18.7,18.7s8.4,18.7,18.7,18.7h212.5c10.4,0,18.7-8.4,18.7-18.7s-8.4-18.7-18.7-18.7Z"/>
      </g>
    </g>
  </g>
</svg>