<?xml version="1.0" encoding="UTF-8"?>
<svg xmlns="http://www.w3.org/2000/svg" version="1.1" viewBox="0 0 250 250">
  <defs>
    <style>
      .cls-1 {
        fill: #e01c1c;
      }
    </style>
  </defs>
  <!-- Generator: Adobe Illustrator 28.7.10, SVG Export Plug-In . SVG Version: 1.2.0 Build 236)  -->
  <g>
    <g id="Capa_1">
      <g>
        <path class="cls-1" d="M223.9,250c-6.7,0-13.4-2.6-18.5-7.7L7.7,44.6C-2.6,34.4-2.6,17.9,7.7,7.7c10.2-10.2,26.8-10.2,37,0l197.7,197.7c10.2,10.2,10.2,26.8,0,37-5.1,5.1-11.8,7.7-18.5,7.7Z"/>
        <path class="cls-1" d="M26.1,250c-6.7,0-13.4-2.6-18.5-7.7-10.2-10.2-10.2-26.8,0-37L205.4,7.7c10.2-10.2,26.8-10.2,37,0,10.2,10.2,10.2,26.8,0,37L44.6,242.3c-5.1,5.1-11.8,7.7-18.5,7.7Z"/>
      </g>
    </g>
  </g>
</svg>