<?xml version="1.0" encoding="UTF-8"?>
<svg xmlns="http://www.w3.org/2000/svg" version="1.1" viewBox="0 0 250 250">
  <defs>
    <style>
      .cls-1 {
        fill: #ff1721;
      }
    </style>
  </defs>
  <!-- Generator: Adobe Illustrator 28.7.10, SVG Export Plug-In . SVG Version: 1.2.0 Build 236)  -->
  <g>
    <g id="Capa_1">
      <path class="cls-1" d="M242,180c-.7-.5-50.3-36.3-63.9-33.7-6.5,1.2-10.2,5.6-17.7,14.5-1.2,1.4-4.1,4.9-6.3,7.3-4.7-1.5-9.3-3.4-13.8-5.6-23-11.2-41.5-29.7-52.7-52.7-2.2-4.4-4.1-9-5.6-13.8,2.4-2.3,5.9-5.1,7.3-6.4,8.8-7.4,13.3-11.1,14.4-17.6,2.4-13.5-33.4-63.4-33.8-63.9-3.3-4.7-8.5-7.7-14.2-8.1C41.3,0,0,53.6,0,62.7s.8,53.9,66.6,120.8c66.9,65.7,120.2,66.5,120.8,66.5,9,0,62.7-41.3,62.7-55.8-.4-5.7-3.4-10.9-8-14.2h0Z"/>
    </g>
  </g>
</svg>